<svg width="87" height="57" viewBox="0 0 87 57" fill="none" xmlns="http://www.w3.org/2000/svg">
<path d="M87 56.0803C87 56.0803 77.0148 53.8731 72.8391 51.482C68.8451 49.0909 66.848 48.3551 66.6665 47.8033C66.6665 47.8033 67.9373 47.6194 66.848 46.6997C66.848 46.6997 62.3093 43.205 60.3122 42.1014C59.9491 41.9175 59.586 41.5496 59.4045 41.1817C58.4967 39.7103 55.4104 35.2959 46.696 27.9385C46.3329 27.7546 46.1514 27.3867 45.9698 27.2028C44.699 25.9153 40.1602 20.9491 34.3507 17.0865C33.6245 16.7186 33.0798 16.1668 32.5352 15.615C29.9935 13.2238 23.0946 6.41831 22.1868 4.57898C22.1868 4.57898 19.4636 -1.85869 9.11528 0.532443C8.38909 0.716376 7.66289 0.900311 7.11824 1.26818C5.30275 2.18784 0.764011 4.76291 1.85331 6.60225C1.85331 6.60225 1.85331 6.60225 1.85331 6.78618C1.67176 7.33798 1.49021 7.88978 1.30866 8.44158C0.400912 9.91305 -1.59613 14.3274 2.39796 17.4543C2.39796 17.4543 1.67176 14.6953 1.85331 14.3274C1.85331 14.3274 4.0319 15.7989 5.84739 14.8792C6.02894 14.6953 6.39204 14.6953 6.57359 14.6953C7.29979 14.8792 8.57064 16.1668 10.023 20.7651C10.023 20.7651 13.2909 36.3995 27.2702 43.5729C27.2702 43.5729 31.2643 50.7463 30.3566 52.0338C29.9935 52.4017 29.9935 52.5856 29.9935 52.5856C29.4488 53.1374 28.178 54.241 24.1839 54.9767C24.1839 54.9767 23.6392 54.7928 22.7315 54.9767C22.5499 54.9767 22.5499 54.9767 22.3684 54.9767C21.8237 54.7928 20.7344 54.6089 19.8267 54.7928H19.6452C19.2821 54.7928 18.5559 54.6089 18.0112 54.7928C18.0112 54.7928 16.1957 53.5053 15.1064 54.6089C15.1064 54.6089 14.0171 55.1607 14.9249 56.6321C14.9249 56.6321 14.9249 53.6892 17.4666 55.3446C17.4666 55.3446 16.5588 56.0803 16.9219 56.8161C16.9219 56.8161 17.1035 55.8964 17.6481 56.0803C17.6481 56.0803 18.0112 56.2643 18.1928 56.0803C18.1928 56.0803 19.1005 55.7125 19.2821 56.4482C19.2821 56.4482 19.4636 56.2643 19.2821 56.2643H20.1898C20.1898 56.2643 20.5529 57.1839 21.2791 56.6321C21.2791 56.6321 22.0053 56.4482 22.0053 56.8161C22.0053 56.8161 22.7315 56.2643 23.6392 56.8161C23.6392 56.8161 24.1839 56.6321 25.0916 57H37.6185C37.6185 57 37.8001 56.4482 38.3447 57L39.2525 56.8161C39.2525 56.8161 39.6156 56.6321 39.9787 56.8161C40.1602 56.8161 41.068 57 40.8864 55.7125C40.8864 55.7125 43.065 54.241 43.4281 56.6321C43.4281 56.6321 44.3359 53.8731 40.5233 54.6089C40.5233 54.6089 38.3447 56.4482 32.7167 55.3446C32.5352 55.3446 32.5352 55.1607 32.7167 54.9767C33.2614 54.6089 34.1691 54.0571 35.0769 54.0571C35.0769 54.0571 37.8001 53.6892 37.6185 50.7463C37.6185 50.5623 37.6185 50.5623 37.6185 50.3784C37.6185 49.6427 38.1632 46.6997 40.8864 47.4355C40.8864 47.4355 46.5145 48.9069 47.9669 48.1712H48.1484C48.6931 48.1712 51.0532 47.8033 53.0502 48.9069L53.2318 49.0909C53.7764 49.4587 55.5919 50.7463 56.8628 50.0105C56.8628 50.0105 57.0443 50.0105 57.2259 50.0105C58.8598 50.7463 73.0207 57.9197 72.1129 55.1607C72.1129 55.1607 76.107 57.1839 81.372 56.6321C81.372 56.6321 75.3808 54.9767 73.7469 53.1374C73.9284 52.9535 83.5506 57 87 56.0803ZM9.11528 6.78618C8.20754 6.78618 7.48134 6.23438 7.48134 5.49864C7.48134 4.76291 8.20754 4.21111 9.11528 4.21111C10.023 4.21111 10.7492 4.76291 10.7492 5.49864C10.7492 6.23438 10.023 6.78618 9.11528 6.78618Z" fill="url(#paint0_linear)"/>
<defs>
<linearGradient id="paint0_linear" x1="43.5" y1="0" x2="43.5" y2="57" gradientUnits="userSpaceOnUse">
<stop stop-color="#9300FF"/>
<stop offset="1" stop-color="#4200FF"/>
</linearGradient>
</defs>
</svg>
