<svg width="89" height="54" viewBox="0 0 89 54" fill="none" xmlns="http://www.w3.org/2000/svg">
<path d="M88.7506 0.461392C88.5653 0.274846 88.38 0.0883008 88.1947 0.0883008C87.6389 -0.0982448 86.1566 -0.098244 83.5626 1.20758C83.5626 1.20758 79.6717 2.88649 73.9279 7.36358L67.443 11.8407C67.443 11.8407 56.326 19.6756 44.0974 17.064C42.9857 16.8774 42.0592 16.5043 40.9475 15.9447C39.28 15.012 35.7596 13.5196 31.6834 13.7061C31.6834 13.7061 28.9041 14.0792 27.7924 13.1465C27.7924 13.1465 24.0868 10.7214 14.6374 14.0792C14.2668 14.2658 14.0815 14.2658 13.7109 14.2658C13.1551 14.2658 12.414 14.0792 12.2287 13.1465C12.2287 13.1465 11.117 10.3483 8.89358 8.6694C8.89358 8.6694 6.29962 6.6174 5.37321 7.55013C5.37321 7.55013 3.89094 8.6694 3.52038 9.60213C3.52038 9.60213 3.52038 9.78868 3.33509 9.78868C2.96453 9.97522 1.1117 10.5349 0.926415 12.0272C0.926415 12.0272 0.555849 14.2658 0.555849 15.9447C0.555849 16.1312 0.555849 16.3178 0.555849 16.3178C0.370566 17.2505 -0.370566 21.5411 0.926415 21.3545H1.85283V21.168H2.2234L2.03811 20.7949H2.2234C2.2234 20.7949 2.2234 20.7949 2.2234 20.9814C2.2234 21.3545 2.03811 23.0334 2.2234 23.7796C2.2234 23.7796 3.14981 24.8989 4.07623 23.7796C4.07623 23.7796 7.41132 18.7429 7.5966 17.8101C7.5966 17.8101 7.96717 17.9967 7.96717 19.116C8.15245 19.8621 7.96717 20.7949 7.96717 21.5411C7.78189 22.2872 7.5966 23.7796 7.41132 25.4585C7.41132 25.6451 7.41132 25.6451 7.41132 25.8316C7.41132 26.2047 7.22604 27.6971 6.29962 29.1894L6.11434 29.376C5.74377 29.9356 4.44679 31.9876 3.70566 30.4952C3.70566 30.4952 3.14981 29.0029 2.2234 29.376C2.2234 29.376 1.29698 30.1222 1.85283 30.3087C1.85283 30.3087 2.96453 31.6145 1.48226 32.3607C1.48226 32.3607 0 32.3607 0 33.8531C0 33.8531 0 36.6513 1.48226 35.7185C1.48226 35.7185 1.48226 37.2109 1.66755 37.3974C1.66755 37.3974 2.96453 38.8898 3.14981 37.584C3.14981 37.584 2.59396 35.532 4.07623 34.0396C4.07623 34.0396 4.07623 34.0396 4.26151 33.8531C4.44679 33.6665 5.18792 32.9203 5.92906 32.7338C5.92906 32.7338 8.7083 31.2414 8.89358 29.0029C8.89358 29.0029 9.82 27.1374 10.3758 27.324C11.117 27.324 11.8581 29.0029 18.5283 28.6298C18.7136 28.6298 18.8989 28.8163 18.8989 29.0029C18.8989 29.7491 19.0841 31.2414 20.1958 33.2934C20.1958 33.2934 20.937 34.7858 16.6755 35.7185C16.6755 35.7185 16.4902 35.7185 16.3049 36.0916C16.3049 36.0916 14.2668 35.9051 14.4521 37.2109C14.4521 37.2109 16.3049 37.584 17.2313 37.0243C17.2313 37.0243 20.3811 36.2782 19.8253 38.1436C19.8253 38.1436 20.0106 39.4494 18.343 41.1284C18.343 41.1284 17.2313 41.8745 17.6019 42.6207C17.6019 42.6207 18.343 42.0611 18.8989 42.2476C18.8989 42.2476 20.1958 41.1283 20.5664 40.5687C20.5664 40.5687 20.5664 40.5687 20.7517 40.5687C20.937 40.7553 21.3075 41.1284 22.234 40.1956C22.234 40.9418 22.234 45.2324 18.8989 47.0978C18.5283 47.0978 18.343 47.2844 17.9725 47.2844C17.046 47.2844 14.6374 47.4709 14.6374 49.7094V51.3884C14.6374 51.3884 15.1932 51.3884 15.3785 50.6422C15.3785 50.6422 16.1196 50.2691 16.3049 51.0153C16.3049 51.0153 17.2313 51.2018 19.0842 50.6422C19.0842 50.6422 20.0106 52.5076 21.3075 50.4556C21.3075 50.4556 23.3457 50.2691 22.6045 48.9633C22.6045 48.7767 22.4192 48.7767 22.4192 48.5902C22.4192 48.2171 22.4192 47.4709 22.9751 48.5902C22.9751 48.5902 23.3457 49.5229 23.3457 46.9113C23.3457 46.7247 23.3457 46.3516 23.3457 46.1651C23.5309 45.2324 24.2721 42.8073 25.5691 41.3149C25.7543 41.1283 25.7543 40.9418 25.9396 40.7553C26.1249 40.1956 26.1249 39.4494 25.5691 38.3302C25.5691 38.3302 25.1985 37.0243 25.9396 34.5993C25.9396 34.5993 26.6808 31.6145 25.7543 30.6818C25.9396 30.6818 30.3864 31.6145 31.4981 31.428C31.6834 31.428 31.6834 31.428 31.6834 31.6145C31.8687 32.1742 32.4245 33.2934 33.7215 34.2262C33.7215 34.2262 41.1328 39.8225 39.4653 46.1651C39.4653 46.1651 39.4653 49.5229 36.1302 48.7767C36.1302 48.7767 35.3891 48.7767 35.3891 49.5229C35.3891 49.5229 32.9804 49.1498 34.0921 51.5749C34.0921 51.5749 35.0185 50.2691 35.5743 51.0153C35.5743 51.0153 35.0185 54.3731 36.3155 52.6942H36.5008C36.8713 52.8807 37.7977 53.2538 38.1683 52.6942C38.1683 52.6942 38.1683 52.6942 38.3536 52.6942H38.9094C39.28 52.6942 39.8358 52.6942 40.2064 53.0673C40.577 53.2538 40.9475 53.6269 41.1328 54C41.1328 54 41.874 54 41.874 53.0673C41.874 53.0673 41.874 52.8807 42.0592 52.8807C42.2445 52.6942 42.8004 51.948 42.2445 51.3884C42.2445 51.2018 42.0592 51.2018 42.0592 51.0153C42.0592 49.7094 42.6151 42.2476 43.3562 41.1284C43.3562 41.1284 44.2826 39.8225 42.0592 37.7705C41.874 37.584 41.6887 37.3974 41.6887 37.2109C41.5034 35.9051 40.9475 31.8011 38.9094 30.4952C38.7241 30.3087 38.7241 30.1222 38.9094 29.9356C39.4653 29.376 40.9475 28.4432 44.2826 27.6971C44.2826 27.6971 54.8438 25.6451 58.5494 22.6603C58.5494 22.6603 66.7019 16.6909 69.2958 14.4523C69.8517 14.0792 70.2223 13.5196 70.7781 13.1465C74.1132 10.3483 84.1185 2.32685 86.8977 1.95376C86.8977 1.39412 89.8623 1.39412 88.7506 0.461392ZM5.92906 13.7061C5.74377 13.7061 5.55849 13.333 5.55849 12.96C5.55849 12.5869 5.74377 12.2138 5.92906 12.2138C6.11434 12.2138 6.29962 12.5869 6.29962 12.96C6.29962 13.333 6.11434 13.7061 5.92906 13.7061Z" fill="url(#paint0_linear)"/>
<defs>
<linearGradient id="paint0_linear" x1="44.5" y1="0" x2="44.5" y2="54" gradientUnits="userSpaceOnUse">
<stop stop-color="#9300FF"/>
<stop offset="1" stop-color="#4200FF"/>
</linearGradient>
</defs>
</svg>
