<svg width="67" height="77" viewBox="0 0 67 77" fill="none" xmlns="http://www.w3.org/2000/svg">
<path d="M63.9457 62.2557C63.9457 62.2557 62.9889 61.6156 65.2214 61.6156C65.2214 61.6156 58.5239 55.0539 49.2749 50.4127C47.5207 49.4525 45.7666 48.1722 44.4909 46.5718C43.0557 44.9714 40.8232 42.7308 38.1123 40.9703C37.7933 40.8103 37.3149 40.4902 36.996 40.1701C35.8798 39.0499 33.8067 36.4892 32.8499 32.0081C32.8499 31.848 32.8499 31.848 32.8499 31.688C32.6904 30.5677 31.2553 21.6055 23.1225 21.7655C23.1225 21.7655 23.282 20.9653 22.963 20.3251C22.963 20.1651 22.963 20.005 23.1225 20.005C23.6009 20.005 24.5577 20.1651 25.5145 20.4852C25.5145 20.4852 24.7172 19.5249 22.4846 19.5249C22.4846 19.5249 30.9363 17.6044 32.0526 14.4036C32.0526 14.4036 32.212 12.8032 31.4147 12.6432C31.4147 12.6432 29.9795 13.4434 25.5145 14.2436C25.5145 14.2436 22.3252 15.2038 21.5279 16.6442C21.5279 16.4842 22.0062 14.5637 26.1524 13.7635C26.1524 13.7635 22.3252 12.9633 18.9764 18.4046C18.9764 18.5647 18.8169 18.5647 18.6575 18.4046V18.2446C18.9764 17.6044 21.2089 13.1233 22.1657 12.1631C22.1657 12.1631 22.4846 10.8827 21.3684 12.003C21.3684 12.003 18.3385 16.3241 18.1791 17.7645C18.1791 17.9245 18.0196 17.9245 18.0196 17.9245C17.8601 17.9245 17.5412 17.7645 17.2223 17.7645C17.2223 17.7645 17.0628 17.7645 17.0628 17.6044L20.2521 11.5229C20.2521 11.5229 22.963 6.88174 22.963 3.52089C22.963 3.52089 23.1225 2.40061 22.0062 2.24057C21.8468 2.24057 21.8468 2.24057 21.8468 2.40061C21.6873 3.20081 20.89 7.04178 19.9332 8.3221H19.7737C19.7737 8.16206 19.7737 8.00202 19.9332 7.84198C19.9332 7.68194 19.7737 7.5219 19.7737 7.68194C19.6143 8.00202 19.4548 8.16206 19.4548 8.3221H19.2953C19.7737 7.04178 21.3684 1.92048 19.6143 2.88073C19.4548 2.88073 19.4548 2.88073 19.4548 2.72069C19.4548 1.92048 19.1359 0.16004 17.8601 0C17.7007 0 17.7007 0.16004 17.7007 0.16004C17.8601 0.960242 18.498 4.48113 16.425 9.1223C16.425 9.1223 15.4682 11.2028 15.3087 12.003C15.6276 10.2426 16.9034 2.08053 13.8735 0.480121C13.8735 0.480121 13.714 0.480121 13.714 0.640162C13.8735 1.92048 14.6708 9.1223 13.714 11.0428C13.714 11.0428 13.714 0.800202 9.249 1.12028C9.08954 1.12028 9.08954 1.28032 9.08954 1.44036C9.56793 2.40061 11.4815 5.44137 11.1626 10.8827C11.1626 10.8827 10.8437 13.9235 11.0031 15.2038C10.8437 13.7635 9.56793 7.68194 7.17595 4.80121C7.17595 4.64117 7.01649 4.64117 7.01649 4.48113C6.69755 3.84097 4.94343 1.12028 2.39198 1.92048C2.39198 1.92048 2.23252 2.08053 2.39198 2.08053C3.02985 2.56065 5.5813 4.48113 6.05969 6.40162C6.05969 6.40162 6.05969 6.40162 6.05969 6.56166L8.13274 12.6432C8.13274 12.6432 3.66771 3.04077 0.159465 4.16105C-1.54454e-07 4.16105 0 4.32109 0 4.32109C0.637862 4.80121 3.18931 6.88174 3.34878 7.36186C3.34878 7.36186 7.17595 15.2038 7.65435 16.9643C7.65435 16.9643 8.77061 22.4057 12.5978 25.9265C12.7572 26.0866 12.9167 26.4067 12.7572 26.7267C12.2788 27.847 11.1626 30.7278 14.033 33.7685V33.4484C14.033 33.4484 15.4682 34.7288 17.7007 33.9286C17.7007 33.9286 18.0196 33.7685 18.0196 34.4087C18.0196 34.4087 18.9764 41.1304 18.3385 41.7705C18.3385 41.7705 15.6276 44.3312 17.7007 47.532C17.7007 47.532 22.0062 54.8939 26.7902 59.0549C27.5875 59.8551 28.3849 60.6553 28.8633 61.6156C29.5011 62.7358 30.139 64.1762 29.6606 64.8164C29.6606 64.8164 27.4281 64.3362 27.1091 64.6563C27.1091 64.6563 24.5577 66.0967 24.8766 66.4168C24.8766 66.4168 23.4414 66.7368 23.6009 67.0569C23.6009 67.0569 21.6873 67.537 21.3684 68.1772C21.3684 68.1772 19.1359 69.1375 20.7305 70.8979C20.7305 70.8979 20.4116 69.4575 21.2089 69.2975C21.2089 69.2975 21.5279 70.4178 22.4846 68.9774C22.4846 68.9774 23.1225 68.9774 23.282 68.6573V69.4575C23.282 69.4575 22.963 69.7776 22.963 70.0977C22.963 70.0977 22.0062 72.1782 24.3982 72.4983C24.3982 72.4983 23.282 71.378 23.6009 70.8979C23.6009 70.8979 24.2388 71.0579 24.3982 70.4178C24.3982 70.4178 24.5577 70.4178 24.5577 70.5778C24.5577 70.5778 24.5577 72.0182 25.674 71.8581C25.674 71.8581 24.7172 71.0579 25.674 70.7378C25.674 70.7378 26.7902 70.7378 26.7902 70.5778C26.7902 70.5778 27.1091 70.8979 27.4281 70.7378C27.4281 70.7378 26.7902 71.0579 27.1091 71.538C27.1091 71.538 27.4281 71.5381 27.9065 71.218C27.9065 71.218 29.5011 71.378 29.5011 70.7378H30.9363C30.9363 70.7378 32.8499 71.6981 34.1256 71.218C34.1256 71.218 34.2851 71.0579 34.4446 71.378C34.4446 71.378 34.7635 71.5381 35.0824 71.378C35.0824 71.378 35.8798 72.1782 36.3582 71.538C36.3582 71.538 36.996 71.5381 37.1555 72.4983C37.1555 72.4983 37.4744 71.218 36.3582 70.5778C36.3582 70.5778 36.1987 69.7776 35.2419 69.7776C35.2419 69.7776 36.6771 65.6166 36.6771 64.4963C36.6771 64.4963 44.8098 63.8561 56.7697 71.8581C56.7697 71.8581 59.4807 74.4188 59.6401 73.6186C59.6401 73.6186 59.7996 73.2985 60.4375 73.7786C60.4375 73.7786 64.5836 77.2995 65.062 76.9794H65.2214C65.2214 76.8194 65.2214 76.4993 64.2646 76.0192C64.2646 76.0192 62.9889 73.9387 60.5969 72.9784L56.6103 69.4575L56.1319 68.4973L56.6103 67.377L57.0887 67.6971C57.0887 67.6971 56.9292 65.7766 56.2913 64.9764C56.2913 64.9764 57.4076 65.1364 57.886 65.7766C57.886 65.7766 57.0887 64.0162 56.6103 63.0559L55.813 60.1752L57.886 62.7358C57.886 62.7358 60.278 62.8959 60.9159 62.2557C60.9159 62.2557 63.4673 63.536 66.1782 65.7766C68.7297 67.8571 64.5836 62.5758 63.9457 62.2557ZM15.3087 31.3679C15.3087 31.528 15.4682 31.688 15.4682 31.688L14.8303 32.3282H14.5114C14.3519 32.3282 14.1924 32.4882 14.1924 32.4882H13.8735C13.5546 32.4882 13.714 30.7278 13.714 30.7278C13.714 30.2476 14.5114 30.4077 14.5114 30.4077C14.9898 30.4077 15.4682 30.2476 15.4682 30.2476C14.9898 31.0478 15.3087 31.3679 15.3087 31.3679ZM19.9332 25.6065C19.9332 25.6065 19.6143 26.7267 18.9764 26.4067C18.9764 26.4067 18.6575 26.2466 18.498 25.9265C18.498 25.9265 18.3385 24.6462 19.2953 24.9663C19.4548 24.9663 20.2521 24.8063 19.9332 25.6065ZM31.7336 68.4973C31.5742 68.3372 30.6174 68.3372 30.6174 68.3372C30.4579 68.0172 30.139 68.3372 30.139 68.3372C29.9795 68.1772 27.747 68.9774 27.747 68.9774C27.5875 68.9774 25.8334 68.9774 25.8334 68.9774C25.1956 68.9774 25.8334 68.1772 25.8334 68.1772C26.1524 68.1772 26.3118 67.377 26.3118 67.377C28.5443 68.3372 29.3417 66.7368 29.3417 66.7368C29.6606 67.0569 30.6174 67.0569 30.6174 67.0569C31.2553 67.6971 31.7336 67.377 31.7336 67.377C31.7336 67.6971 32.212 67.537 32.212 67.537C32.3715 68.0172 31.7336 68.4973 31.7336 68.4973ZM32.3715 68.8174C32.3715 68.8174 32.0526 68.8174 32.212 68.6573C32.212 68.6573 32.531 68.0172 32.6904 68.1772C32.6904 68.3372 32.6904 68.6573 32.3715 68.8174Z" fill="url(#paint0_linear)"/>
<defs>
<linearGradient id="paint0_linear" x1="33.5" y1="0" x2="33.5" y2="77" gradientUnits="userSpaceOnUse">
<stop stop-color="#9300FF"/>
<stop offset="1" stop-color="#4200FF"/>
</linearGradient>
</defs>
</svg>
