<svg width="79" height="66" viewBox="0 0 79 66" fill="none" xmlns="http://www.w3.org/2000/svg">
<path d="M0.278145 60.6941C0.278145 60.6941 11.8121 39.4826 12.1417 33.4455C12.1417 33.4455 12.636 25.4504 14.6132 18.9238C14.6132 18.9238 14.778 17.129 14.2837 15.0079C14.2837 15.0079 14.4484 13.8657 16.2609 12.0709C16.2609 12.0709 17.7439 2.28097 24.4995 2.77046C24.4995 2.77046 26.312 1.13881 33.0676 2.6073C33.0676 2.6073 37.6812 1.13881 41.3061 0.975647C41.6357 0.975647 41.9652 0.975648 42.2947 0.812482C44.4368 0.486152 53.8287 -1.30867 61.2434 1.79147C61.2434 1.79147 78.8739 8.64441 78.8739 20.5555C78.8739 20.7186 78.8739 20.8818 78.8739 21.2081C79.0387 23.1661 79.533 35.0772 76.2376 38.3405L76.7319 44.7039C76.7319 44.7039 76.0728 46.4987 75.7432 44.2144V40.9511C75.7432 40.9511 75.4137 41.2775 75.4137 45.3566C75.4137 45.3566 76.5671 49.1094 75.908 49.9252C75.908 49.9252 77.8853 54.8202 74.7546 55.1465C74.7546 55.1465 73.1069 55.1465 72.6126 55.1465C72.4478 55.1465 72.4478 55.1465 72.2831 55.1465C71.7887 55.1465 70.141 55.3097 69.8115 54.8202C69.8115 54.8202 67.8342 55.1465 68.3286 53.1885C68.3286 53.0254 68.4933 52.8622 68.6581 52.699C69.1524 52.2095 70.4706 51.0674 70.4706 49.1094C70.4706 49.1094 70.4706 38.1773 68.9876 39.3195C68.8229 39.3195 68.8229 39.4826 68.8229 39.4826C68.6581 40.4616 67.1752 47.1514 67.999 50.4147C67.999 50.4147 69.1524 54.4939 65.1979 54.4939C65.1979 54.4939 64.0445 55.3097 63.2207 54.657C63.2207 54.657 60.09 55.7992 60.7491 52.699C60.7491 52.699 61.2434 51.72 61.7377 50.9042V50.7411C61.7377 49.9252 61.4082 45.1934 62.3968 42.0933C62.3968 41.9301 62.3968 41.9301 62.3968 41.767C62.3968 40.9511 62.3968 38.1773 60.5843 37.1983C60.2548 37.0352 60.09 37.0352 59.7605 37.0352C58.1128 36.872 51.0276 36.3825 48.556 35.0772C48.3913 35.0772 48.2265 35.0772 48.2265 35.0772C47.897 35.4035 46.9083 36.3825 46.7436 38.6668C46.7436 38.6668 44.6015 52.8622 46.7436 55.1465C46.7436 55.1465 47.897 57.594 45.7549 58.2467C45.7549 58.2467 43.2834 58.0835 42.2947 58.4098C42.2947 58.4098 40.1527 58.7361 39.6584 58.0835C39.6584 58.0835 36.8573 59.0625 37.8459 55.7992C37.8459 55.7992 41.4709 52.8622 39.6584 50.9042C39.6584 50.741 39.4936 50.741 39.4936 50.5779C39.4936 50.0884 39.4936 48.9462 39.1641 48.6199C39.1641 48.4567 38.9993 48.4567 38.9993 48.2936L37.8459 34.7509C37.8459 34.7509 35.5391 42.9091 34.8801 46.3356V46.4987C34.0562 49.7621 33.2323 53.0254 34.8801 54.1675C35.0448 54.1675 35.0448 54.3307 35.0448 54.4939C35.2096 55.1465 35.7039 56.9413 33.3971 56.615C33.3971 56.615 30.7608 57.594 29.2778 56.7782C29.2778 56.7782 27.9597 57.4308 26.971 56.615C26.971 56.615 25.9824 55.1465 27.1358 54.0044C27.1358 54.0044 29.1131 52.0464 28.7835 49.5989C28.7835 49.5989 28.7835 48.7831 29.2778 46.9882V46.8251C29.1131 45.6829 28.1244 33.4455 30.2665 29.3664C30.4312 29.2032 30.2665 29.0401 30.1017 29.0401C28.9483 29.2032 26.1472 29.6927 24.4995 29.6927C24.3347 29.6927 24.1699 29.8559 24.1699 29.8559C23.6756 30.6717 21.6984 33.6087 21.5336 34.2614C21.5336 34.2614 20.545 34.0982 20.7097 31.8139C20.7097 31.8139 14.9428 42.5828 12.4712 46.3356C11.9769 47.1514 11.4826 47.8041 11.153 48.6199C9.83485 51.0674 7.19852 55.9623 5.71558 57.4308C5.55081 57.594 5.38605 57.7572 5.22128 57.9203C4.06788 59.2256 0.607689 63.6311 3.07925 64.6101C3.07925 64.6101 3.07925 66.4049 1.102 65.9154C1.26677 65.7523 -0.71048 65.2628 0.278145 60.6941ZM25.9824 17.129C25.9824 17.129 22.687 15.8237 22.1927 17.2922C22.1927 17.2922 23.3461 18.108 25.9824 17.129Z" fill="url(#paint0_linear)"/>
<defs>
<linearGradient id="paint0_linear" x1="39.5" y1="0" x2="39.5" y2="66" gradientUnits="userSpaceOnUse">
<stop stop-color="#9300FF"/>
<stop offset="1" stop-color="#4200FF"/>
</linearGradient>
</defs>
</svg>
