<svg width="249" height="199" viewBox="0 0 249 199" fill="none" xmlns="http://www.w3.org/2000/svg">
<path d="M83.887 35.1513C73.8387 35.1513 64.4207 44.6744 58.3638 51.7817C52.2368 44.7794 42.8188 35.1513 32.8406 35.1513C24.3973 34.9153 16.2037 38.0307 10.0502 43.8168C3.89673 49.6029 0.283497 57.5894 0 66.0312C0.485623 74.5607 3.85598 82.6718 9.55807 89.0336C21.847 105.664 52.832 126.356 54.1624 127.231C55.4157 128.036 56.8741 128.464 58.3638 128.464C59.8535 128.464 61.3118 128.036 62.5651 127.231C63.8955 126.321 94.8805 105.629 107.204 88.9986C112.884 82.626 116.241 74.5188 116.728 65.9962C116.435 57.5606 112.818 49.583 106.665 43.8044C100.513 38.0257 92.3244 34.9151 83.887 35.1513ZM216.159 35.1513C206.111 35.1513 196.693 44.6744 190.636 51.7817C184.474 44.7794 175.056 35.1513 165.113 35.1513C156.67 34.9153 148.476 38.0307 142.323 43.8168C136.169 49.6029 132.556 57.5894 132.273 66.0312C132.759 74.5539 136.116 82.661 141.796 89.0336C154.12 105.664 185.104 126.356 186.435 127.231C187.688 128.036 189.147 128.464 190.636 128.464C192.126 128.464 193.584 128.036 194.838 127.231C196.168 126.321 227.153 105.629 239.442 88.9986C245.144 82.6368 248.514 74.5257 249 65.9962C248.707 57.5606 245.09 49.583 238.938 43.8044C232.785 38.0257 224.597 34.9151 216.159 35.1513Z" fill="#E7E7E7"/>
<path d="M58.3636 120.719C59.3943 120.719 60.3828 121.128 61.1116 121.857C61.8404 122.586 62.2499 123.574 62.2499 124.605C62.2518 135.234 64.4696 145.745 68.7618 155.469C73.0539 165.193 79.326 173.914 87.1779 181.078L88.4033 182.164L90.819 184.264C91.4555 184.949 91.8239 185.84 91.8566 186.774C91.8892 187.709 91.584 188.623 90.997 189.351C90.4099 190.078 89.5802 190.57 88.6601 190.735C87.74 190.901 86.7911 190.729 85.9875 190.251H85.6724L83.2566 188.15C74.2028 180.226 66.9502 170.455 61.9863 159.494C57.0223 148.533 54.462 136.637 54.4774 124.605C54.4774 123.574 54.8868 122.586 55.6156 121.857C56.3444 121.128 57.3329 120.719 58.3636 120.719Z" fill="#E7E7E7"/>
<path d="M124.5 112.946C125.467 112.942 126.402 113.298 127.12 113.945C127.839 114.593 128.29 115.485 128.386 116.447V194.172C128.416 194.683 128.345 195.194 128.178 195.677C128.01 196.16 127.749 196.605 127.409 196.987C127.069 197.369 126.658 197.68 126.197 197.903C125.737 198.126 125.238 198.256 124.728 198.286C124.217 198.316 123.706 198.245 123.223 198.077C122.74 197.91 122.295 197.649 121.913 197.309C121.531 196.969 121.22 196.557 120.997 196.097C120.774 195.637 120.644 195.138 120.614 194.628V116.727C120.641 115.715 121.063 114.753 121.788 114.047C122.514 113.341 123.487 112.946 124.5 112.946Z" fill="#FF9C41"/>
<path d="M193.262 120.719C194.296 120.719 195.288 121.127 196.022 121.855C196.757 122.583 197.174 123.571 197.183 124.605C197.158 136.312 194.691 147.886 189.94 158.586C185.19 169.286 178.261 178.878 169.594 186.75L168.369 187.87L165.953 189.971C165.604 190.377 165.174 190.707 164.691 190.939C164.208 191.171 163.682 191.3 163.147 191.32C162.611 191.339 162.077 191.247 161.579 191.05C161.081 190.853 160.629 190.555 160.251 190.175C159.873 189.795 159.578 189.341 159.384 188.841C159.191 188.342 159.102 187.807 159.125 187.272C159.147 186.737 159.28 186.212 159.516 185.73C159.751 185.249 160.083 184.821 160.491 184.474L160.842 184.124L163.257 182.023C171.463 174.854 178.039 166.011 182.544 156.089C187.049 146.168 189.379 135.396 189.376 124.5C189.376 123.469 189.785 122.481 190.514 121.752C191.243 121.023 192.231 120.614 193.262 120.614V120.719Z" fill="#E7E7E7"/>
<path d="M158.531 0.140045C145.157 0.140045 132.693 12.8141 124.5 22.1971C116.307 12.6741 103.878 0 90.4691 0C66.3463 0 46.705 18.4859 46.705 41.2082C46.705 54.7226 53.7073 64.2106 59.3791 71.8431C75.7994 94.0052 117.113 121.629 118.898 122.819C120.572 123.915 122.534 124.488 124.535 124.465C126.525 124.492 128.477 123.918 130.137 122.819C131.887 121.629 173.236 94.0052 189.656 71.8431C195.293 64.0706 202.33 54.7226 202.33 41.2082C202.295 18.696 182.864 0.140045 158.531 0.140045Z" fill="#FF9C41"/>
<path d="M29.4096 52.0267C29.8876 51.8968 30.3976 51.9598 30.8297 52.202C31.2619 52.4443 31.5817 52.8465 31.7203 53.3221C31.7885 53.5704 31.8062 53.8299 31.7724 54.0852C31.7385 54.3405 31.6538 54.5865 31.5232 54.8084C31.3926 55.0304 31.2189 55.224 31.0122 55.3776C30.8055 55.5312 30.5701 55.6418 30.3199 55.7029C26.998 56.3948 23.9488 58.0372 21.5433 60.4303C19.1378 62.8234 17.4796 65.864 16.7705 69.1822C16.7167 69.4312 16.614 69.667 16.4684 69.8761C16.3227 70.0851 16.1371 70.2632 15.9222 70.3999C15.7072 70.5367 15.4673 70.6294 15.2163 70.6728C14.9653 70.7162 14.7081 70.7094 14.4598 70.6527C13.9579 70.5204 13.5273 70.1978 13.2593 69.7533C12.9913 69.3089 12.907 68.7775 13.0243 68.2719C13.8721 64.2605 15.8753 60.5849 18.7869 57.6983C21.6984 54.8116 25.3911 52.8401 29.4096 52.0267ZM86.688 16.1752C87.1936 16.0579 87.7249 16.1422 88.1694 16.4102C88.6139 16.6781 88.9365 17.1088 89.0687 17.6106C89.1842 18.1074 89.0979 18.6296 88.8288 19.0628C88.5597 19.496 88.1298 19.8048 87.6333 19.9214C84.2953 20.5949 81.2312 22.2407 78.8264 24.6517C76.4217 27.0626 74.7838 30.131 74.1189 33.4707C74.0619 33.7196 73.9551 33.9543 73.805 34.1608C73.6548 34.3672 73.4644 34.5411 73.2452 34.672C73.026 34.8028 72.7825 34.888 72.5296 34.9222C72.2766 34.9564 72.0193 34.9391 71.7732 34.8712C71.5281 34.8138 71.297 34.7081 71.0934 34.5603C70.8897 34.4124 70.7176 34.2254 70.5872 34.0102C70.4567 33.795 70.3706 33.5559 70.3337 33.3069C70.2969 33.058 70.3102 32.8042 70.3727 32.5604C71.1911 28.5327 73.173 24.8335 76.0731 21.921C78.9731 19.0085 82.6637 17.0108 86.688 16.1752ZM223.477 52.0267C222.999 51.8968 222.489 51.9598 222.057 52.202C221.625 52.4443 221.305 52.8465 221.166 53.3221C221.098 53.5704 221.08 53.8299 221.114 54.0852C221.148 54.3405 221.233 54.5865 221.363 54.8084C221.494 55.0304 221.668 55.224 221.874 55.3776C222.081 55.5312 222.316 55.6418 222.567 55.7029C225.9 56.3696 228.962 58.0037 231.372 60.401C233.782 62.7983 235.432 65.8526 236.116 69.1822C236.17 69.4312 236.272 69.667 236.418 69.8761C236.564 70.0851 236.749 70.2632 236.964 70.3999C237.179 70.5367 237.419 70.6294 237.67 70.6728C237.921 70.7162 238.178 70.7094 238.427 70.6527C238.929 70.5204 239.359 70.1978 239.627 69.7533C239.895 69.3089 239.979 68.7775 239.862 68.2719C239.014 64.2605 237.011 60.5849 234.1 57.6983C231.188 54.8116 227.495 52.8401 223.477 52.0267Z" fill="white"/>
<path d="M56.4382 118.408C57.0408 117.65 57.9051 117.144 58.8614 116.989C59.8178 116.835 60.7973 117.043 61.608 117.573C62.4188 118.104 63.0022 118.918 63.244 119.856C63.4859 120.794 63.3686 121.788 62.9153 122.644L62.6352 123.065L53.7073 135.003C53.0818 135.825 52.1573 136.367 51.1347 136.511C50.1121 136.655 49.0739 136.39 48.2455 135.774C47.4942 135.208 46.9736 134.388 46.7804 133.468C46.5873 132.547 46.7347 131.587 47.1952 130.767L47.4753 130.347L56.4382 118.408Z" fill="#E7E7E7"/>
<path d="M62.6352 118.408C62.0325 117.65 61.1683 117.144 60.212 116.989C59.2556 116.835 58.2761 117.043 57.4653 117.573C56.6546 118.104 56.0712 118.918 55.8293 119.856C55.5875 120.794 55.7048 121.788 56.1581 122.644L56.4382 123.065L65.4011 135.003C65.9675 135.876 66.8574 136.488 67.8752 136.705C68.8929 136.922 69.955 136.725 70.8278 136.159C71.7007 135.592 72.3127 134.702 72.5294 133.685C72.7461 132.667 72.5496 131.605 71.9832 130.732L71.7031 130.312L62.6352 118.408Z" fill="#E7E7E7"/>
<path d="M121.664 110.6C122.3 109.79 123.229 109.261 124.251 109.13C125.273 108.999 126.306 109.276 127.126 109.9C127.84 110.489 128.32 111.313 128.481 112.225C128.641 113.136 128.471 114.075 128.001 114.872L127.756 115.292L118.898 127.231C118.322 128.06 117.445 128.632 116.454 128.826C115.463 129.02 114.435 128.82 113.588 128.27C112.742 127.719 112.143 126.86 111.918 125.876C111.694 124.891 111.862 123.858 112.386 122.994L112.666 122.574L121.664 110.6Z" fill="#FF9C41"/>
<path d="M122.434 109.725C123.191 109.148 124.132 108.869 125.081 108.94C126.029 109.011 126.919 109.427 127.581 110.11L127.896 110.495L136.824 122.469C137.158 122.854 137.412 123.302 137.572 123.785C137.731 124.269 137.793 124.78 137.754 125.288C137.715 125.796 137.576 126.291 137.344 126.745C137.112 127.199 136.793 127.602 136.404 127.931C136.016 128.266 135.566 128.521 135.079 128.681C134.593 128.841 134.079 128.903 133.568 128.864C133.057 128.825 132.559 128.686 132.102 128.453C131.646 128.221 131.24 127.901 130.907 127.511L130.592 127.231L121.664 115.292C121.342 114.879 121.107 114.405 120.971 113.899C120.835 113.393 120.802 112.865 120.874 112.346C120.946 111.827 121.121 111.328 121.389 110.878C121.657 110.428 122.012 110.036 122.434 109.725Z" fill="#FF9C41"/>
<path d="M188.676 118.408C189.301 117.589 190.223 117.046 191.243 116.895C192.263 116.745 193.302 116.999 194.137 117.603C194.885 118.179 195.402 119.005 195.595 119.929C195.788 120.854 195.643 121.817 195.188 122.644L194.908 123.065L185.98 135.003C185.354 135.825 184.43 136.367 183.407 136.511C182.385 136.655 181.346 136.39 180.518 135.774C179.751 135.211 179.22 134.385 179.026 133.454C178.832 132.523 178.989 131.554 179.468 130.732L179.748 130.312L188.676 118.408Z" fill="#E7E7E7"/>
<path d="M194.908 118.408C194.305 117.65 193.441 117.144 192.484 116.989C191.528 116.835 190.548 117.043 189.738 117.573C188.927 118.104 188.343 118.918 188.102 119.856C187.86 120.794 187.977 121.788 188.43 122.644L188.676 123.065L197.673 135.003C197.983 135.411 198.37 135.754 198.812 136.012C199.255 136.27 199.744 136.438 200.251 136.507C200.759 136.575 201.275 136.542 201.77 136.41C202.265 136.279 202.729 136.05 203.135 135.739C203.866 135.165 204.372 134.353 204.564 133.444C204.756 132.535 204.622 131.587 204.186 130.767L203.905 130.347L194.908 118.408Z" fill="#E7E7E7"/>
</svg>
