<svg width="193" height="154" viewBox="0 0 193 154" fill="none" xmlns="http://www.w3.org/2000/svg">
<path d="M64.8975 27.1941C57.1239 27.1941 49.8378 34.5615 45.152 40.0599C40.412 34.6427 33.1259 27.1941 25.4065 27.1941C18.8745 27.0115 12.5357 29.4217 7.77517 33.898C3.01463 38.3743 0.219322 44.5529 0 51.0838C0.375693 57.6824 2.98311 63.9574 7.39442 68.8791C16.9015 81.7449 40.8724 97.7526 41.9017 98.4297C42.8713 99.0527 43.9995 99.3839 45.152 99.3839C46.3045 99.3839 47.4327 99.0527 48.4023 98.4297C49.4315 97.7255 73.4025 81.7178 82.9367 68.8521C87.3308 63.922 89.9274 57.65 90.304 51.0567C90.0777 44.5306 87.2793 38.3589 82.5195 33.8884C77.7598 29.4179 71.425 27.0114 64.8975 27.1941ZM167.228 27.1941C159.454 27.1941 152.168 34.5615 147.482 40.0599C142.715 34.6427 135.429 27.1941 127.737 27.1941C121.205 27.0115 114.866 29.4217 110.105 33.898C105.345 38.3743 102.549 44.5529 102.33 51.0838C102.707 57.6771 105.303 63.949 109.697 68.8791C119.232 81.7449 143.202 97.7526 144.232 98.4297C145.201 99.0527 146.33 99.3839 147.482 99.3839C148.635 99.3839 149.763 99.0527 150.732 98.4297C151.762 97.7255 175.733 81.7178 185.24 68.8521C189.651 63.9303 192.258 57.6553 192.634 51.0567C192.408 44.5306 189.609 38.3589 184.85 33.8884C180.09 29.4179 173.755 27.0114 167.228 27.1941Z" fill="white"/>
<path d="M45.1519 93.3918C45.9493 93.3918 46.714 93.7085 47.2778 94.2723C47.8417 94.8362 48.1584 95.6009 48.1584 96.3983C48.1599 104.621 49.8757 112.753 53.1962 120.276C56.5167 127.798 61.3691 134.546 67.4435 140.088L68.3915 140.927L70.2604 142.552C70.7528 143.082 71.0378 143.772 71.0631 144.494C71.0883 145.217 70.8522 145.925 70.3981 146.488C69.9439 147.05 69.302 147.431 68.5902 147.559C67.8784 147.686 67.1443 147.554 66.5226 147.184H66.2788L64.4099 145.559C57.4056 139.428 51.7948 131.869 47.9545 123.389C44.1142 114.91 42.1335 105.707 42.1454 96.3983C42.1454 95.6009 42.4621 94.8362 43.026 94.2723C43.5898 93.7085 44.3545 93.3918 45.1519 93.3918Z" fill="white"/>
<path d="M96.3171 87.3787C97.0654 87.375 97.7882 87.6506 98.3442 88.1515C98.9002 88.6524 99.2494 89.3426 99.3236 90.0873V150.218C99.3467 150.613 99.2918 151.008 99.1621 151.382C99.0324 151.755 98.8303 152.1 98.5675 152.395C98.3047 152.691 97.9862 152.932 97.6303 153.104C97.2743 153.277 96.8879 153.377 96.4931 153.4C96.0983 153.423 95.7028 153.369 95.3292 153.239C94.9556 153.109 94.6112 152.907 94.3156 152.644C94.0201 152.381 93.7792 152.063 93.6068 151.707C93.4343 151.351 93.3337 150.965 93.3105 150.57V90.304C93.3317 89.5208 93.6578 88.7768 94.2194 88.2304C94.7809 87.684 95.5336 87.3784 96.3171 87.3787Z" fill="#FFC226"/>
<path d="M149.513 93.3917C150.313 93.3916 151.081 93.7075 151.649 94.2706C152.217 94.8337 152.54 95.5983 152.547 96.3982C152.527 105.455 150.619 114.409 146.944 122.687C143.269 130.965 137.908 138.386 131.204 144.475L130.256 145.342L128.387 146.967C128.116 147.282 127.784 147.536 127.41 147.716C127.036 147.896 126.63 147.996 126.215 148.011C125.801 148.026 125.388 147.955 125.003 147.802C124.617 147.65 124.267 147.419 123.975 147.125C123.683 146.831 123.455 146.48 123.305 146.093C123.155 145.707 123.086 145.294 123.104 144.879C123.121 144.465 123.224 144.059 123.406 143.687C123.588 143.314 123.845 142.983 124.161 142.715L124.432 142.444L126.301 140.819C132.649 135.272 137.737 128.431 141.222 120.756C144.707 113.08 146.509 104.747 146.507 96.3169C146.507 95.5196 146.824 94.7548 147.388 94.191C147.951 93.6272 148.716 93.3104 149.513 93.3104V93.3917Z" fill="white"/>
<path d="M122.644 0.108343C112.298 0.108343 102.655 9.91339 96.317 17.1724C89.9789 9.80505 80.3635 0 69.9896 0C51.3275 0 36.1324 14.3013 36.1324 31.88C36.1324 42.3351 41.5496 49.6753 45.9375 55.58C58.6407 72.7253 90.6019 94.096 91.9833 95.0169C93.2784 95.8645 94.7964 96.3076 96.3441 96.2899C97.8837 96.3105 99.3939 95.8669 100.678 95.0169C102.032 94.096 134.02 72.7253 146.724 55.58C151.084 49.567 156.529 42.3351 156.529 31.88C156.502 14.4638 141.469 0.108343 122.644 0.108343Z" fill="#FFC226"/>
<path d="M22.7521 40.2495C23.1219 40.149 23.5165 40.1977 23.8508 40.3851C24.1851 40.5725 24.4325 40.8837 24.5397 41.2516C24.5925 41.4438 24.6062 41.6445 24.58 41.842C24.5538 42.0395 24.4883 42.2298 24.3873 42.4015C24.2862 42.5733 24.1518 42.723 23.9919 42.8418C23.832 42.9607 23.6499 43.0463 23.4563 43.0935C20.8864 43.6288 18.5275 44.8994 16.6665 46.7508C14.8055 48.6021 13.5227 50.9544 12.9741 53.5215C12.9325 53.7141 12.853 53.8966 12.7404 54.0583C12.6277 54.22 12.4841 54.3578 12.3178 54.4636C12.1515 54.5694 11.9659 54.6411 11.7717 54.6747C11.5775 54.7083 11.3786 54.703 11.1864 54.6591C10.7982 54.5568 10.465 54.3072 10.2577 53.9634C10.0504 53.6195 9.98518 53.2084 10.0759 52.8173C10.7318 49.7139 12.2816 46.8704 14.534 44.6372C16.7865 42.404 19.6432 40.8787 22.7521 40.2495ZM67.0644 12.5136C67.4555 12.4229 67.8666 12.4881 68.2105 12.6954C68.5544 12.9028 68.8039 13.2359 68.9062 13.6242C68.9956 14.0085 68.9288 14.4125 68.7206 14.7476C68.5125 15.0828 68.1798 15.3216 67.7957 15.4118C65.2134 15.9329 62.8429 17.2061 60.9825 19.0713C59.1221 20.9365 57.855 23.3103 57.3406 25.894C57.2965 26.0865 57.2139 26.2681 57.0977 26.4278C56.9816 26.5876 56.8342 26.7221 56.6646 26.8233C56.4951 26.9246 56.3067 26.9904 56.111 27.0169C55.9153 27.0434 55.7163 27.03 55.5259 26.9774C55.3363 26.9331 55.1575 26.8513 54.9999 26.7369C54.8424 26.6226 54.7092 26.4779 54.6083 26.3114C54.5074 26.1449 54.4408 25.9599 54.4123 25.7673C54.3838 25.5747 54.394 25.3784 54.4424 25.1898C55.0756 22.0738 56.6088 19.212 58.8524 16.9588C61.0959 14.7056 63.9512 13.1601 67.0644 12.5136ZM172.889 40.2495C172.519 40.149 172.124 40.1977 171.79 40.3851C171.456 40.5725 171.208 40.8837 171.101 41.2516C171.048 41.4438 171.034 41.6445 171.061 41.842C171.087 42.0395 171.152 42.2298 171.253 42.4015C171.354 42.5733 171.489 42.723 171.649 42.8418C171.809 42.9607 171.991 43.0463 172.184 43.0935C174.763 43.6093 177.132 44.8735 178.997 46.7281C180.861 48.5827 182.137 50.9456 182.666 53.5215C182.708 53.7141 182.788 53.8966 182.9 54.0583C183.013 54.22 183.157 54.3578 183.323 54.4636C183.489 54.5694 183.675 54.6411 183.869 54.6747C184.063 54.7083 184.262 54.703 184.454 54.6591C184.842 54.5568 185.176 54.3072 185.383 53.9634C185.59 53.6195 185.655 53.2084 185.565 52.8173C184.909 49.7139 183.359 46.8704 181.107 44.6372C178.854 42.404 175.997 40.8787 172.889 40.2495Z" fill="#EAEAEA"/>
<path d="M43.6623 91.6041C44.1285 91.0173 44.7971 90.6258 45.537 90.5064C46.2768 90.3869 47.0346 90.5481 47.6618 90.9584C48.289 91.3686 48.7404 91.9983 48.9275 92.724C49.1146 93.4497 49.0238 94.2191 48.6731 94.8814L48.4564 95.2065L41.5496 104.443C41.0657 105.078 40.3505 105.498 39.5594 105.609C38.7682 105.721 37.965 105.516 37.3242 105.039C36.7429 104.601 36.3402 103.967 36.1907 103.255C36.0413 102.542 36.1553 101.8 36.5116 101.165L36.7283 100.84L43.6623 91.6041Z" fill="white"/>
<path d="M48.4564 91.6041C47.9902 91.0173 47.3216 90.6258 46.5818 90.5064C45.8419 90.3869 45.0841 90.5481 44.4569 90.9584C43.8297 91.3686 43.3783 91.9983 43.1912 92.724C43.0041 93.4497 43.0949 94.2191 43.4456 94.8814L43.6623 95.2065L50.5962 104.443C51.0344 105.118 51.7229 105.592 52.5102 105.759C53.2976 105.927 54.1193 105.775 54.7945 105.337C55.4698 104.898 55.9433 104.21 56.1109 103.423C56.2785 102.635 56.1265 101.814 55.6883 101.138L55.4717 100.813L48.4564 91.6041Z" fill="white"/>
<path d="M94.1231 85.564C94.6149 84.9366 95.334 84.5281 96.1247 84.4267C96.9154 84.3253 97.7142 84.5393 98.3485 85.0223C98.9008 85.4778 99.2724 86.1154 99.3965 86.8204C99.5207 87.5255 99.3891 88.2517 99.0256 88.8684L98.836 89.1935L91.9833 98.4297C91.5372 99.0712 90.859 99.5138 90.0922 99.6638C89.3254 99.8138 88.5304 99.6594 87.8755 99.2334C87.2206 98.8073 86.7572 98.1431 86.5836 97.3813C86.41 96.6195 86.5397 95.8201 86.9454 95.1523L87.162 94.8273L94.1231 85.564Z" fill="#FFC226"/>
<path d="M94.7189 84.8868C95.3041 84.4406 96.0325 84.2245 96.7663 84.2794C97.5001 84.3343 98.1883 84.6564 98.7005 85.1847L98.9443 85.4827L105.851 94.746C106.109 95.0438 106.306 95.3899 106.43 95.7642C106.553 96.1385 106.601 96.5336 106.571 96.9266C106.541 97.3196 106.433 97.7027 106.253 98.0537C106.074 98.4047 105.827 98.7166 105.526 98.9714C105.226 99.2304 104.878 99.4275 104.501 99.5515C104.125 99.6754 103.728 99.7236 103.332 99.6934C102.937 99.6632 102.552 99.5551 102.198 99.3754C101.845 99.1958 101.531 98.948 101.274 98.6464L101.03 98.4297L94.123 89.1934C93.8741 88.8736 93.6918 88.5072 93.5868 88.1157C93.4819 87.7243 93.4564 87.3158 93.512 86.9143C93.5675 86.5129 93.7029 86.1266 93.9102 85.7784C94.1175 85.4302 94.3925 85.127 94.7189 84.8868Z" fill="#FFC226"/>
<path d="M145.965 91.6041C146.449 90.9701 147.162 90.5501 147.951 90.4338C148.741 90.3174 149.544 90.5138 150.191 90.9811C150.769 91.4272 151.169 92.0657 151.318 92.781C151.467 93.4963 151.356 94.2414 151.003 94.8815L150.787 95.2065L143.88 104.443C143.396 105.078 142.681 105.498 141.889 105.609C141.098 105.721 140.295 105.516 139.654 105.039C139.061 104.603 138.65 103.964 138.5 103.244C138.35 102.524 138.472 101.774 138.842 101.138L139.058 100.813L145.965 91.6041Z" fill="white"/>
<path d="M150.786 91.6041C150.32 91.0173 149.652 90.6258 148.912 90.5064C148.172 90.3869 147.414 90.5481 146.787 90.9584C146.16 91.3686 145.708 91.9983 145.521 92.724C145.334 93.4497 145.425 94.2191 145.776 94.8814L145.965 95.2065L152.926 104.443C153.166 104.758 153.465 105.024 153.807 105.223C154.15 105.423 154.528 105.553 154.921 105.606C155.313 105.658 155.713 105.633 156.095 105.531C156.478 105.429 156.837 105.253 157.152 105.012C157.717 104.568 158.108 103.939 158.257 103.236C158.406 102.533 158.302 101.8 157.964 101.165L157.748 100.84L150.786 91.6041Z" fill="white"/>
</svg>
