<svg width="216" height="216" viewBox="0 0 216 216" fill="none" xmlns="http://www.w3.org/2000/svg">
<path d="M107.998 215.995C167.643 215.995 215.995 167.643 215.995 107.998C215.995 48.3522 167.643 0 107.998 0C48.3522 0 0 48.3522 0 107.998C0 167.643 48.3522 215.995 107.998 215.995Z" fill="#68E1FD"/>
<path d="M107.998 8.80566C53.2132 8.80566 8.80115 53.2177 8.80115 107.998C8.80115 162.778 53.2132 207.194 107.998 207.194C162.782 207.194 207.194 162.782 207.194 107.998C207.194 53.2132 162.787 8.80566 107.998 8.80566ZM97.2278 198.502C47.2479 192.554 11.5512 147.212 17.4984 97.2323C23.4456 47.2524 68.7833 11.5512 118.768 17.4984C168.752 23.4456 204.444 68.7878 198.497 118.763C192.55 168.739 147.212 204.449 97.2278 198.502Z" fill="url(#paint0_linear)"/>
<path d="M198.497 118.763C192.55 168.752 147.212 204.449 97.2278 198.502C47.2434 192.554 11.5512 147.212 17.4984 97.2323C23.4456 47.2524 68.7833 11.5512 118.768 17.4984C168.752 23.4456 204.444 68.7878 198.497 118.763Z" fill="#68E1FD"/>
<path d="M198.497 118.763C192.55 168.752 147.212 204.449 97.2278 198.502C47.2434 192.554 11.5512 147.212 17.4984 97.2323C23.4456 47.2524 68.7833 11.5512 118.768 17.4984C168.752 23.4456 204.444 68.7878 198.497 118.763Z" fill="url(#paint1_linear)"/>
<path d="M157.982 31.7635C153.755 30.6338 149.453 29.8083 145.108 29.2934C95.1234 23.3462 49.7857 59.0429 43.8385 109.027C41.8317 125.863 44.5608 142.925 51.7188 158.295C58.8768 173.665 70.1801 186.733 84.358 196.032C41.2781 184.521 12.075 142.805 17.4984 97.2323C23.4456 47.2479 68.7833 11.5512 118.768 17.4984C132.769 19.1445 146.195 24.0285 157.982 31.7635Z" fill="url(#paint2_linear)"/>
<path d="M102.534 104.372V40.1492C102.534 40.1492 103.437 36.7173 106.237 38.7493L107.113 103.464L113.706 103.338C113.706 103.338 116.916 87.4468 118.059 85.6676C119.201 83.8884 124.607 81.9511 124.607 81.9511C124.607 81.9511 124.561 79.5623 123.979 78.8624C123.396 78.1625 122.001 76.7039 122.258 76.0672C122.516 75.4305 122.805 74.8299 122.805 74.8299C122.805 74.8299 122.001 71.2986 122.322 70.3458C122.322 70.3458 123.798 66.679 123.979 66.4261C124.064 66.2769 124.181 66.1481 124.322 66.0491C124.462 65.9501 124.623 65.8831 124.792 65.8529C124.962 65.8228 125.135 65.8302 125.301 65.8746C125.468 65.919 125.622 65.9994 125.754 66.11C126.792 66.7648 128.838 70.698 128.838 70.698C128.838 70.698 131.321 72.9558 131.516 75.2769C131.71 77.598 129.371 81.4409 129.371 81.4409L132.983 82.9536C132.983 82.9536 141.563 86.9275 142.218 87.948C142.873 88.9686 141.888 90.6574 141.888 90.6574L133.453 90.7974L130.445 95.2409L130.843 102.15L136.379 105.112C136.379 105.112 137.205 106.765 136.984 107.149C136.763 107.533 156.668 107.727 156.668 107.727V110.224C156.668 110.224 156.51 111.452 154.898 111.502C153.286 111.552 138.483 111.502 138.483 111.502L137.345 118.276L137.395 122.471L141.459 126.756C141.459 126.756 141.703 128.562 140.601 128.431C139.499 128.3 134.121 125.668 134.058 123.591V116.365L133.177 110.77L129.402 108.011L126.499 109.646L125.144 118.461L125.505 124.986V126.792L123.5 131.141C123.5 131.141 122.322 131.353 122.322 129.149C122.322 126.946 124.001 124.403 124.001 124.403C123.612 123.326 123.044 122.321 122.322 121.432C121.306 120.335 119.016 109.059 119.016 109.059L103.482 110.183L102.534 104.372Z" fill="url(#paint3_linear)"/>
<path d="M129.393 127.045C129.249 127.763 128.931 128.434 128.467 129C128.002 129.584 127.486 130.126 126.928 130.621C126.586 130.975 126.174 131.254 125.717 131.439C125.487 131.526 125.236 131.544 124.996 131.491C124.755 131.438 124.535 131.317 124.363 131.141C124.21 130.92 124.129 130.659 124.129 130.391C124.129 130.123 124.21 129.862 124.363 129.642C124.681 129.21 125.063 128.829 125.496 128.513C126.472 127.686 127.131 126.639 128.007 125.735C129.046 124.674 129.547 126.119 129.393 127.045Z" fill="#68E1FD"/>
<path d="M136.501 123.595C136.965 124.306 137.596 124.894 138.339 125.306C139.09 125.737 139.877 126.101 140.691 126.395C141.211 126.636 141.776 126.761 142.349 126.761C142.638 126.759 142.921 126.673 143.162 126.513C143.403 126.352 143.591 126.124 143.703 125.857C143.77 125.554 143.742 125.237 143.624 124.949C143.507 124.661 143.304 124.416 143.044 124.245C142.518 123.916 141.944 123.67 141.342 123.518C139.937 123.04 138.777 122.191 137.445 121.59C135.869 120.886 135.945 122.66 136.501 123.595Z" fill="#68E1FD"/>
<path d="M134.338 90.8019C134.338 90.8019 142.421 94.0397 143.753 93.9629C145.085 93.8862 146.277 92.7527 145.848 91.2129C145.419 89.673 134.076 83.9019 134.076 83.9019L134.338 90.8019Z" fill="#68E1FD"/>
<path d="M133.692 90.8019C133.692 90.8019 141.775 94.0397 143.103 93.9629C144.431 93.8861 145.627 92.7527 145.198 91.2128C144.769 89.673 133.435 83.8839 133.435 83.8839L133.692 90.8019Z" fill="url(#paint4_linear)"/>
<path d="M122.597 101.315C122.535 98.9347 122.596 96.5533 122.778 94.1797C123.017 90.8561 121.978 86.8281 124.132 84.2858C124.765 83.5407 127.957 82.9672 128.937 82.9311C131.258 82.904 133.904 83.2607 135.711 84.9902C137.115 86.3449 136.063 89.6504 135.905 91.5967C135.607 95.3583 136.049 96.6588 136.09 99.4405C136.117 101.536 136.049 104.042 134.36 105.311C133.43 105.993 131.096 105.939 129.944 106.015C128.364 106.128 125.487 106.521 124.038 105.762C122.669 105.044 122.647 102.647 122.597 101.315Z" fill="#68E1FD"/>
<path d="M122.597 101.315C122.535 98.9347 122.596 96.5533 122.778 94.1797C123.017 90.8561 121.978 86.8281 124.132 84.2858C124.765 83.5407 127.957 82.9672 128.937 82.9311C131.258 82.904 133.904 83.2607 135.711 84.9902C137.115 86.3449 136.063 89.6504 135.905 91.5967C135.607 95.3583 136.049 96.6588 136.09 99.4405C136.117 101.536 136.049 104.042 134.36 105.311C133.43 105.993 131.096 105.939 129.944 106.015C128.364 106.128 125.487 106.521 124.038 105.762C122.669 105.044 122.647 102.647 122.597 101.315Z" fill="url(#paint5_linear)"/>
<path opacity="0.31" d="M123.283 89.0047L123.776 94.6312C123.889 96.0385 124.457 97.3706 125.395 98.4258C126.333 99.481 127.589 100.202 128.973 100.479C129.122 100.51 129.273 100.531 129.425 100.542C131.069 100.669 133.864 102.046 133.864 102.046L127.388 104.06L124.01 103.044L122.597 103.41L122.751 94.9744L123.283 89.0047Z" fill="url(#paint6_linear)"/>
<path d="M127.411 84.4077C127.433 84.7997 127.533 85.1834 127.705 85.5367C127.876 85.89 128.115 86.2061 128.409 86.4668C128.899 86.8081 129.488 86.978 130.084 86.95C130.418 86.9715 130.752 86.9158 131.06 86.7874C131.369 86.659 131.643 86.4612 131.863 86.2095C132.315 85.5592 132.175 84.6606 131.967 83.8839C131.868 83.3195 131.593 82.8009 131.181 82.4027C130.527 81.8879 129.136 81.8428 128.364 82.1092C127.478 82.4163 127.316 83.6129 127.411 84.4077Z" fill="#68E1FD"/>
<path d="M127.411 84.4077C127.433 84.7997 127.533 85.1834 127.705 85.5367C127.876 85.89 128.115 86.2061 128.409 86.4668C128.899 86.8081 129.488 86.978 130.084 86.95C130.418 86.9715 130.752 86.9158 131.06 86.7874C131.369 86.659 131.643 86.4612 131.863 86.2095C132.315 85.5592 132.175 84.6606 131.967 83.8839C131.868 83.3195 131.593 82.8009 131.181 82.4027C130.527 81.8879 129.136 81.8428 128.364 82.1092C127.478 82.4163 127.316 83.6129 127.411 84.4077Z" fill="url(#paint7_linear)"/>
<path d="M125.65 76.8619C125.65 76.4104 126.169 73.2494 124.412 73.9357C123.803 74.1615 124.042 74.8389 124.155 75.4214C124.331 76.3381 125.659 77.0832 125.65 76.8619Z" fill="url(#paint8_linear)"/>
<path d="M133.67 77.0019C133.715 76.5503 133.051 73.3893 134.749 74.1976C135.336 74.4821 135.038 75.1008 134.871 75.7059C134.618 76.6 133.643 77.2187 133.67 77.0019Z" fill="url(#paint9_linear)"/>
<path d="M107.998 113.846C111.227 113.846 113.846 111.227 113.846 107.998C113.846 104.768 111.227 102.15 107.998 102.15C104.768 102.15 102.15 104.768 102.15 107.998C102.15 111.227 104.768 113.846 107.998 113.846Z" fill="#68E1FD"/>
<path d="M107.998 113.846C111.227 113.846 113.846 111.227 113.846 107.998C113.846 104.768 111.227 102.15 107.998 102.15C104.768 102.15 102.15 104.768 102.15 107.998C102.15 111.227 104.768 113.846 107.998 113.846Z" fill="url(#paint10_linear)"/>
<path d="M107.808 36.6721C108.372 36.6721 108.913 36.8961 109.312 37.295C109.711 37.6939 109.935 38.2349 109.935 38.799V109.632H105.668V38.799C105.668 38.2349 105.892 37.6939 106.291 37.295C106.689 36.8961 107.23 36.6721 107.795 36.6721H107.808Z" fill="#25233A"/>
<path d="M155.643 105.835H107.582C106.532 105.835 105.681 106.685 105.681 107.734C105.681 108.782 106.532 109.632 107.582 109.632H155.643C156.693 109.632 157.544 108.782 157.544 107.734C157.544 106.685 156.693 105.835 155.643 105.835Z" fill="#25233A"/>
<path d="M128.3 84.1729C128.277 84.6042 128.353 85.0351 128.522 85.4328C128.643 85.64 128.795 85.8274 128.973 85.9882C129.181 86.2412 129.464 86.4214 129.782 86.503C129.957 86.5243 130.135 86.5034 130.301 86.4422C130.466 86.3809 130.615 86.281 130.734 86.1508C130.964 85.8859 131.12 85.565 131.186 85.2205C131.334 84.4648 131.359 83.6901 131.258 82.9265L131.159 81.6486C131.162 81.086 131.016 80.5326 130.734 80.0455C130.609 79.8715 130.45 79.7251 130.266 79.6156C130.081 79.506 129.877 79.4356 129.664 79.4088C127.438 79.1288 128.269 82.9265 128.3 84.1729Z" fill="url(#paint11_linear)"/>
<path d="M134.148 71.4611C134.148 71.4611 134.767 80.3029 130.274 81.4408C125.781 82.5788 125.148 75.1189 125.022 72.5178C124.896 69.9168 126.919 67.7357 130.274 68.1511C131.823 68.3453 133.819 69.3568 134.148 71.4611Z" fill="url(#paint12_linear)"/>
<path d="M126.661 66.11C127.528 64.8231 129.511 64.6831 130.829 65.5004C131.434 65.8797 131.945 66.4036 132.613 66.67C133.092 66.8551 133.624 66.8822 134.117 67.0358C134.609 67.1947 135.049 67.4832 135.391 67.871C135.733 68.2587 135.965 68.7315 136.061 69.2395C136.158 69.7476 136.116 70.2723 135.94 70.7585C135.764 71.2448 135.46 71.6747 135.06 72.003C134.568 72.4004 133.959 72.6307 133.43 72.9784C133.43 72.4456 132.852 71.9308 132.41 71.6237C131.953 71.3367 131.427 71.1805 130.888 71.1721L131.028 71.4747C130.256 71.7174 129.427 71.7063 128.662 71.4431C127.808 71.1496 126.905 70.54 126.088 70.9283C125.69 71.118 125.288 71.5289 124.896 71.3302C124.787 71.2531 124.698 71.1517 124.636 71.034C124.575 70.9164 124.541 70.7858 124.539 70.6528C124.281 68.9324 125.645 67.5822 126.661 66.11Z" fill="#25233A"/>
<path d="M124.137 84.2857C123.22 84.6154 122.398 85.1642 121.741 85.8844C121.085 86.6045 120.614 87.4741 120.371 88.4176C119.567 91.6418 116.672 104.381 116.672 104.381C116.672 104.381 119.454 104.697 120.402 104.507L123.162 93.2178C123.162 93.2178 123.049 86.5165 124.137 84.2857Z" fill="#68E1FD"/>
<path d="M124.137 84.2857C123.22 84.6154 122.398 85.1642 121.741 85.8844C121.085 86.6045 120.614 87.4741 120.371 88.4176C119.567 91.6418 116.672 104.381 116.672 104.381C116.672 104.381 119.454 104.697 120.402 104.507L123.162 93.2178C123.162 93.2178 123.049 86.5165 124.137 84.2857Z" fill="url(#paint13_linear)"/>
<path d="M124.006 129.109C124 129.342 124.056 129.573 124.168 129.777C124.286 129.937 124.441 130.067 124.619 130.154C124.798 130.241 124.995 130.284 125.194 130.278C125.906 130.268 126.587 129.984 127.095 129.483C127.594 128.986 128 128.403 128.296 127.763C128.489 127.42 128.631 127.05 128.716 126.666C128.892 125.763 128.526 124.814 128.169 123.956C128.3 124.281 126.435 124.521 126.264 124.521C125.532 124.521 125.632 124.972 125.388 125.577C124.927 126.733 123.997 127.795 124.006 129.109Z" fill="#25233A"/>
<path d="M125.492 122.376L126.395 124.959C126.395 124.959 126.964 126.02 127.831 125.234C127.831 125.234 128.12 124.941 128.178 123.934L127.411 121.64L125.492 122.376Z" fill="url(#paint14_linear)"/>
<path d="M142.507 106.277C141.911 111.163 139.671 118.176 139.572 118.176C139.079 118.036 136.862 118.596 136.361 118.406C136.099 118.303 135.945 113.101 136.09 110.391C136.14 109.488 136.14 106.729 136.14 105.835L129.949 106.015L128.716 106.092C128.725 107.259 128.629 108.424 128.431 109.574C127.772 114.406 127.099 116.799 127.334 121.653C127.302 122.443 125.623 122.769 125.049 122.159C122.48 119.413 122.308 116.51 121.78 112.784C121.427 110.301 120.271 101.22 123.478 100.542C123.95 100.436 124.435 100.396 124.918 100.425C125.677 100.479 127.144 100.52 127.628 101.165C127.79 101.247 131.032 102.872 133.769 102.042L136.659 99.0612C137.056 98.5607 137.609 98.2076 138.23 98.0578C138.851 97.9081 139.505 97.9704 140.086 98.2348C141.215 98.7676 142.073 100.041 142.435 101.5C142.796 102.958 142.701 104.683 142.507 106.277Z" fill="#68E1FD"/>
<path d="M136.144 121.856C136.116 122.058 136.131 122.262 136.189 122.457C136.277 122.644 136.408 122.807 136.573 122.931C137.934 124.127 139.557 124.987 141.31 125.442C141.684 125.568 142.088 125.568 142.462 125.442C142.745 125.282 142.959 125.022 143.063 124.714C143.167 124.406 143.154 124.07 143.026 123.771C142.749 123.181 142.309 122.683 141.757 122.335C141.205 121.99 140.721 121.546 140.33 121.026C140.195 120.713 139.982 120.439 139.712 120.231C139.495 120.14 139.259 120.103 139.025 120.122C138.497 120.122 136.953 119.883 136.524 120.163C136.095 120.443 136.171 121.297 136.144 121.856Z" fill="#25233A"/>
<path d="M136.429 118.406L136.682 120.565C137.084 120.928 137.554 121.21 138.063 121.396C138.19 121.435 138.325 121.443 138.456 121.421C138.587 121.398 138.71 121.345 138.817 121.266C138.924 121.187 139.011 121.084 139.07 120.966C139.13 120.847 139.161 120.716 139.161 120.583V120.407L139.287 118.149L136.429 118.406Z" fill="url(#paint15_linear)"/>
<path d="M145.329 91.2174L133.186 88.675L132.635 91.9624C132.635 91.9624 142.656 96.3066 144.309 95.0331C145.961 93.7597 146.052 92.0347 145.329 91.2174Z" fill="#68E1FD"/>
<path d="M145.329 91.2174L133.186 88.675L132.635 91.9624C132.635 91.9624 142.656 96.3066 144.309 95.0331C145.961 93.7597 146.052 92.0347 145.329 91.2174Z" fill="url(#paint16_linear)"/>
<path d="M133.114 89.0724C133.114 89.0724 129.095 87.2661 127.555 87.3745C126.015 87.4829 126.043 88.5802 126.043 88.5802V89.7814C126.036 90.0179 126.1 90.251 126.227 90.4511C126.353 90.6512 126.535 90.8095 126.751 90.9058C127.174 91.1025 127.642 91.1835 128.106 91.1406C129.086 90.9916 129.285 90.4904 129.285 90.4904C129.285 90.4904 130.156 91.3664 130.694 91.1632C131.361 90.8871 132.103 90.852 132.794 91.0639L133.114 89.0724Z" fill="url(#paint17_linear)"/>
<path d="M132.202 88.5125L131.719 91.1903L132.663 91.3212L133.082 88.7157L132.202 88.5125Z" fill="#25233A"/>
<path d="M132.202 88.5125L132.057 89.3479L132.947 89.4969L133.083 88.7157L132.202 88.5125Z" fill="#25233A"/>
<path d="M133.6 88.3606L131.903 88.0294L131.813 88.4903L133.51 88.8215L133.6 88.3606Z" fill="#68E1FD"/>
<path d="M133.6 88.3606L131.903 88.0294L131.813 88.4903L133.51 88.8215L133.6 88.3606Z" fill="url(#paint18_linear)"/>
<path d="M125.65 71.7366C125.605 72.9247 125.473 74.1079 125.257 75.2769C125.271 74.9547 125.238 74.632 125.157 74.3196C125.135 74.1882 125.075 74.066 124.986 73.9674C124.941 73.918 124.88 73.8863 124.814 73.8781C124.747 73.8698 124.68 73.8854 124.625 73.9222C124.683 73.29 124.43 72.6668 124.448 72.0301C124.46 71.5658 124.618 71.117 124.9 70.7477C124.912 70.7255 124.931 70.708 124.954 70.698C124.982 70.6876 125.012 70.6876 125.04 70.698C125.244 70.7772 125.415 70.9229 125.525 71.1113C125.636 71.2998 125.68 71.5201 125.65 71.7366Z" fill="#25233A"/>
<path d="M133.81 75.7646L134.112 74.3376C134.112 74.2518 134.157 74.148 134.243 74.1209C134.329 74.0938 134.338 74.1209 134.374 74.0802C134.391 74.0592 134.404 74.0345 134.41 74.008L134.776 72.8475C134.83 72.6668 134.884 72.4907 134.925 72.3056C134.948 72.2213 134.948 72.1325 134.925 72.0482C134.891 71.9502 134.821 71.8683 134.731 71.8179C134.65 71.7634 134.56 71.7262 134.464 71.7086C134.369 71.6909 134.27 71.6932 134.176 71.7152C134.081 71.7373 133.992 71.7786 133.915 71.8367C133.837 71.8948 133.772 71.9683 133.724 72.0527C133.649 72.1724 133.604 72.3079 133.592 72.4483C133.579 72.5886 133.6 72.73 133.652 72.861C133.873 73.8122 133.927 74.7949 133.81 75.7646Z" fill="#25233A"/>
<path d="M131.895 88.0383L132.048 87.948L133.489 88.2234L133.593 88.3679L131.895 88.0383Z" fill="#68E1FD"/>
<path d="M131.895 88.0383L132.048 87.948L133.489 88.2234L133.593 88.3679L131.895 88.0383Z" fill="url(#paint19_linear)"/>
<path d="M115.824 104.692C115.576 104.741 115.344 104.848 115.146 105.005C114.949 105.163 114.793 105.365 114.69 105.595C114.565 106.053 114.557 106.534 114.668 106.995C114.695 107.251 114.762 107.501 114.866 107.736C114.91 107.843 114.984 107.936 115.08 108.002C115.175 108.069 115.287 108.106 115.404 108.111C115.733 108.079 115.923 107.627 115.941 107.23C115.914 106.833 115.914 106.435 115.941 106.038C115.9 106.529 115.9 107.023 115.941 107.515C115.935 107.71 116.003 107.9 116.131 108.047C116.185 108.086 116.248 108.109 116.315 108.113C116.381 108.117 116.447 108.102 116.505 108.07C116.648 107.983 116.768 107.865 116.856 107.724C116.945 107.583 116.999 107.423 117.016 107.257C117.059 106.906 117.049 106.55 116.989 106.201C117.047 106.452 117.057 106.713 117.02 106.968C116.981 107.223 117.007 107.485 117.097 107.727C117.205 107.953 117.472 108.088 117.643 107.935C117.754 107.81 117.818 107.65 117.824 107.483C117.892 107.064 117.914 106.638 117.892 106.214C117.822 106.647 117.844 107.09 117.955 107.515C118.099 107.916 118.483 108.237 118.826 108.088C118.966 107.998 119.08 107.874 119.159 107.728C119.237 107.582 119.279 107.419 119.278 107.253C119.314 106.905 119.278 106.553 119.278 106.205C119.278 106.14 119.29 106.076 119.314 106.015C119.409 105.835 119.635 105.921 119.811 105.898C119.987 105.875 120.222 105.595 120.262 105.315C120.293 105.029 120.272 104.74 120.199 104.462C119.397 104.481 118.595 104.448 117.797 104.363C117.125 104.355 116.457 104.467 115.824 104.692Z" fill="url(#paint20_linear)"/>
<path d="M142.575 106.277C141.978 111.163 139.739 118.176 139.639 118.176C139.164 118.148 138.687 118.183 138.221 118.28C137.481 118.388 136.691 118.51 136.415 118.406C136.392 118.406 136.374 118.357 136.352 118.28C136.14 117.494 136.022 113.204 136.131 110.667V110.391C136.18 109.488 136.176 106.729 136.176 105.835L129.989 106.015L128.756 106.092C128.765 107.259 128.67 108.424 128.472 109.574C127.813 114.406 127.14 116.799 127.375 121.653C127.352 122.164 126.648 122.48 125.997 122.475C125.666 122.494 125.341 122.38 125.094 122.159C122.525 119.413 122.353 116.51 121.825 112.784C121.473 110.301 120.317 101.22 123.523 100.542C123.995 100.436 124.48 100.396 124.963 100.425C125.722 100.479 127.189 100.52 127.673 101.165C127.835 101.247 131.077 102.872 133.814 102.042L136.704 99.0612C137.101 98.5607 137.654 98.2076 138.275 98.0578C138.897 97.9081 139.55 97.9704 140.132 98.2348C141.26 98.7676 142.118 100.041 142.48 101.5C142.841 102.958 142.769 104.683 142.575 106.277Z" fill="url(#paint21_linear)"/>
<path d="M126.024 122.475C125.693 122.494 125.369 122.38 125.121 122.159C122.552 119.413 122.38 116.51 121.852 112.784C121.5 110.301 120.344 101.22 123.55 100.542C122.492 102.651 122.157 105.048 122.597 107.366C123.351 111.086 126.024 122.475 126.024 122.475Z" fill="url(#paint22_linear)"/>
<path d="M138.221 118.28C137.481 118.388 136.691 118.51 136.415 118.406C136.393 118.406 136.374 118.357 136.352 118.28C136.14 117.494 136.022 113.204 136.131 110.667V110.391C136.18 109.488 136.176 106.729 136.176 105.835L128.756 106.092L128.454 103.509C128.454 103.509 132.563 104.525 133.791 104.372C135.02 104.218 136.411 103.017 136.411 103.017C136.411 103.017 138.118 100.646 138.623 103.017C139.129 105.216 138.321 116.88 138.221 118.28Z" fill="url(#paint23_linear)"/>
<path d="M109.935 190.82C109.935 189.646 108.983 188.693 107.808 188.693C106.633 188.693 105.681 189.646 105.681 190.82V193.814C105.681 194.989 106.633 195.941 107.808 195.941C108.983 195.941 109.935 194.989 109.935 193.814V190.82Z" fill="white"/>
<path d="M109.935 22.8179C109.935 21.6432 108.983 20.691 107.808 20.691C106.633 20.691 105.681 21.6432 105.681 22.8179V25.8118C105.681 26.9864 106.633 27.9387 107.808 27.9387C108.983 27.9387 109.935 26.9864 109.935 25.8118V22.8179Z" fill="white"/>
<path d="M109.935 190.82C109.935 189.646 108.983 188.693 107.808 188.693C106.633 188.693 105.681 189.646 105.681 190.82V193.814C105.681 194.989 106.633 195.941 107.808 195.941C108.983 195.941 109.935 194.989 109.935 193.814V190.82Z" fill="white"/>
<path d="M48.8555 46.3587C48.0249 45.5281 46.6782 45.5281 45.8476 46.3587C45.017 47.1893 45.017 48.5359 45.8476 49.3666L47.9646 51.4836C48.7952 52.3142 50.1419 52.3142 50.9725 51.4836C51.8031 50.653 51.8031 49.3063 50.9725 48.4757L48.8555 46.3587Z" fill="white"/>
<path d="M167.653 165.153C166.823 164.323 165.476 164.323 164.646 165.153C163.815 165.984 163.815 167.331 164.646 168.161L166.763 170.278C167.593 171.109 168.94 171.109 169.77 170.278C170.601 169.448 170.601 168.101 169.77 167.27L167.653 165.153Z" fill="white"/>
<path d="M22.3076 106.191C21.133 106.191 20.1807 107.144 20.1807 108.318C20.1807 109.493 21.133 110.445 22.3076 110.445H25.3015C26.4762 110.445 27.4284 109.493 27.4284 108.318C27.4284 107.144 26.4762 106.191 25.3015 106.191H22.3076Z" fill="white"/>
<path d="M190.31 106.187C189.135 106.187 188.183 107.139 188.183 108.314C188.183 109.488 189.135 110.441 190.31 110.441H193.304C194.479 110.441 195.431 109.488 195.431 108.314C195.431 107.139 194.479 106.187 193.304 106.187H190.31Z" fill="white"/>
<path d="M45.8477 167.272C45.0171 168.102 45.0171 169.449 45.8477 170.28C46.6783 171.11 48.025 171.11 48.8556 170.28L50.9726 168.163C51.8033 167.332 51.8032 165.985 50.9726 165.155C50.142 164.324 48.7954 164.324 47.9648 165.155L45.8477 167.272Z" fill="white"/>
<path d="M164.644 48.4723C163.813 49.3029 163.813 50.6496 164.644 51.4802C165.474 52.3108 166.821 52.3108 167.652 51.4802L169.769 49.3632C170.599 48.5326 170.599 47.1859 169.769 46.3553C168.938 45.5247 167.591 45.5247 166.761 46.3553L164.644 48.4723Z" fill="white"/>
<defs>
<linearGradient id="paint0_linear" x1="68.5756" y1="-131.854" x2="131.895" y2="253.395" gradientUnits="userSpaceOnUse">
<stop stop-opacity="0"/>
<stop offset="0.88" stop-opacity="0.8"/>
<stop offset="0.97"/>
</linearGradient>
<linearGradient id="paint1_linear" x1="49719.2" y1="-44573.2" x2="41096.3" y2="187430" gradientUnits="userSpaceOnUse">
<stop stop-opacity="0"/>
<stop offset="0.88" stop-opacity="0.8"/>
<stop offset="0.97"/>
</linearGradient>
<linearGradient id="paint2_linear" x1="-19.3679" y1="39.9641" x2="471.914" y2="302.39" gradientUnits="userSpaceOnUse">
<stop stop-color="white" stop-opacity="0"/>
<stop offset="0.84" stop-color="white" stop-opacity="0.84"/>
<stop offset="0.97" stop-color="white"/>
</linearGradient>
<linearGradient id="paint3_linear" x1="17148.9" y1="-15473.6" x2="13329.4" y2="44307.3" gradientUnits="userSpaceOnUse">
<stop stop-opacity="0"/>
<stop offset="0.88" stop-opacity="0.8"/>
<stop offset="0.97"/>
</linearGradient>
<linearGradient id="paint4_linear" x1="3990.71" y1="2025.17" x2="3929.01" y2="2162.09" gradientUnits="userSpaceOnUse">
<stop stop-opacity="0"/>
<stop offset="0.88" stop-opacity="0.8"/>
<stop offset="0.97"/>
</linearGradient>
<linearGradient id="paint5_linear" x1="130.107" y1="80.6913" x2="128.327" y2="117.056" gradientUnits="userSpaceOnUse">
<stop stop-opacity="0"/>
<stop offset="0.5" stop-opacity="0.19"/>
<stop offset="0.55" stop-opacity="0.24"/>
<stop offset="0.97"/>
</linearGradient>
<linearGradient id="paint6_linear" x1="3524.02" y1="2447.73" x2="3446.44" y2="4011.35" gradientUnits="userSpaceOnUse">
<stop stop-opacity="0"/>
<stop offset="0.88" stop-opacity="0.8"/>
<stop offset="0.97"/>
</linearGradient>
<linearGradient id="paint7_linear" x1="1579.1" y1="964.815" x2="1565.05" y2="1099.98" gradientUnits="userSpaceOnUse">
<stop stop-opacity="0"/>
<stop offset="0.5" stop-opacity="0.19"/>
<stop offset="0.55" stop-opacity="0.24"/>
<stop offset="0.97"/>
</linearGradient>
<linearGradient id="paint8_linear" x1="124.01" y1="75.3717" x2="125.717" y2="75.3717" gradientUnits="userSpaceOnUse">
<stop stop-color="#ECC4D7"/>
<stop offset="0.42" stop-color="#EFD4D1"/>
<stop offset="1" stop-color="#F2EAC9"/>
</linearGradient>
<linearGradient id="paint9_linear" x1="606.026" y1="572.572" x2="611.125" y2="572.572" gradientUnits="userSpaceOnUse">
<stop stop-color="#ECC4D7"/>
<stop offset="0.42" stop-color="#EFD4D1"/>
<stop offset="1" stop-color="#F2EAC9"/>
</linearGradient>
<linearGradient id="paint10_linear" x1="2893.33" y1="2281.29" x2="2903.15" y2="3288.99" gradientUnits="userSpaceOnUse">
<stop stop-opacity="0"/>
<stop offset="0.88" stop-opacity="0.8"/>
<stop offset="0.97"/>
</linearGradient>
<linearGradient id="paint11_linear" x1="1095.79" y1="1385.64" x2="1105.07" y2="1437.42" gradientUnits="userSpaceOnUse">
<stop stop-color="#ECC4D7"/>
<stop offset="0.42" stop-color="#EFD4D1"/>
<stop offset="1" stop-color="#F2EAC9"/>
</linearGradient>
<linearGradient id="paint12_linear" x1="2895.11" y1="2100.38" x2="2903.61" y2="2589.1" gradientUnits="userSpaceOnUse">
<stop stop-color="#ECC4D7"/>
<stop offset="0.42" stop-color="#EFD4D1"/>
<stop offset="1" stop-color="#F2EAC9"/>
</linearGradient>
<linearGradient id="paint13_linear" x1="2197.62" y1="4304.15" x2="2309.85" y2="4314.49" gradientUnits="userSpaceOnUse">
<stop stop-opacity="0"/>
<stop offset="0.5" stop-opacity="0.19"/>
<stop offset="0.55" stop-opacity="0.24"/>
<stop offset="0.97"/>
</linearGradient>
<linearGradient id="paint14_linear" x1="923.218" y1="1126.42" x2="917.555" y2="1231.8" gradientUnits="userSpaceOnUse">
<stop stop-color="#ECC4D7"/>
<stop offset="0.42" stop-color="#EFD4D1"/>
<stop offset="1" stop-color="#F2EAC9"/>
</linearGradient>
<linearGradient id="paint15_linear" x1="1054.42" y1="947.169" x2="1051.17" y2="1023.09" gradientUnits="userSpaceOnUse">
<stop stop-color="#ECC4D7"/>
<stop offset="0.42" stop-color="#EFD4D1"/>
<stop offset="1" stop-color="#F2EAC9"/>
</linearGradient>
<linearGradient id="paint16_linear" x1="4395.99" y1="1400.79" x2="4384.9" y2="1485.25" gradientUnits="userSpaceOnUse">
<stop stop-opacity="0"/>
<stop offset="0.88" stop-opacity="0.8"/>
<stop offset="0.97"/>
</linearGradient>
<linearGradient id="paint17_linear" x1="2331.38" y1="850.597" x2="2243.42" y2="827.162" gradientUnits="userSpaceOnUse">
<stop stop-color="#ECC4D7"/>
<stop offset="0.42" stop-color="#EFD4D1"/>
<stop offset="1" stop-color="#F2EAC9"/>
</linearGradient>
<linearGradient id="paint18_linear" x1="666.938" y1="179.677" x2="666.929" y2="180.645" gradientUnits="userSpaceOnUse">
<stop stop-opacity="0"/>
<stop offset="0.88" stop-opacity="0.8"/>
<stop offset="0.97"/>
</linearGradient>
<linearGradient id="paint19_linear" x1="631.19" y1="169.375" x2="631.174" y2="170.354" gradientUnits="userSpaceOnUse">
<stop stop-color="white" stop-opacity="0"/>
<stop offset="0.84" stop-color="white" stop-opacity="0.84"/>
<stop offset="0.97" stop-color="white"/>
</linearGradient>
<linearGradient id="paint20_linear" x1="1645.63" y1="989.829" x2="1717.16" y2="989.829" gradientUnits="userSpaceOnUse">
<stop stop-color="#ECC4D7"/>
<stop offset="0.42" stop-color="#EFD4D1"/>
<stop offset="1" stop-color="#F2EAC9"/>
</linearGradient>
<linearGradient id="paint21_linear" x1="6688.13" y1="5323.61" x2="6803.83" y2="7096.79" gradientUnits="userSpaceOnUse">
<stop stop-color="white" stop-opacity="0"/>
<stop offset="0.84" stop-color="white" stop-opacity="0.84"/>
<stop offset="0.97" stop-color="white"/>
</linearGradient>
<linearGradient id="paint22_linear" x1="1508.1" y1="5512.5" x2="1402.88" y2="5513.35" gradientUnits="userSpaceOnUse">
<stop stop-opacity="0"/>
<stop offset="0.88" stop-opacity="0.8"/>
<stop offset="0.97"/>
</linearGradient>
<linearGradient id="paint23_linear" x1="141.816" y1="95.7737" x2="126.133" y2="123.785" gradientUnits="userSpaceOnUse">
<stop stop-opacity="0"/>
<stop offset="0.91" stop-opacity="0.8"/>
<stop offset="1"/>
</linearGradient>
</defs>
</svg>
