<svg width="363" height="363" viewBox="0 0 363 363" fill="none" xmlns="http://www.w3.org/2000/svg">
<path d="M181.496 362.992C281.734 362.992 362.992 281.734 362.992 181.496C362.992 81.2586 281.734 0 181.496 0C81.2586 0 0 81.2586 0 181.496C0 281.734 81.2586 362.992 181.496 362.992Z" fill="#68E1FD"/>
<path d="M181.496 14.7983C89.4276 14.7983 14.7908 89.4352 14.7908 181.496C14.7908 273.557 89.4276 348.202 181.496 348.202C273.565 348.202 348.202 273.565 348.202 181.496C348.202 89.4276 273.572 14.7983 181.496 14.7983ZM163.397 333.593C79.4027 323.598 19.4124 247.398 29.407 163.404C39.4016 79.4103 115.594 19.4124 199.596 29.407C283.597 39.4016 343.58 115.602 333.585 199.588C323.591 283.574 247.398 343.588 163.397 333.593Z" fill="url(#paint0_linear)"/>
<path d="M333.585 199.588C323.591 283.597 247.398 343.588 163.397 333.593C79.3952 323.598 19.4125 247.398 29.4071 163.404C39.4016 79.4103 115.594 19.4124 199.596 29.407C283.597 39.4016 343.58 115.602 333.585 199.588Z" fill="#68E1FD"/>
<path d="M333.585 199.588C323.591 283.597 247.398 343.588 163.397 333.593C79.3952 323.598 19.4125 247.398 29.4071 163.404C39.4016 79.4103 115.594 19.4124 199.596 29.407C283.597 39.4016 343.58 115.602 333.585 199.588Z" fill="url(#paint1_linear)"/>
<path d="M265.498 53.3804C258.394 51.4818 251.164 50.0945 243.862 49.2292C159.86 39.2346 83.6676 99.2249 73.673 183.227C70.3006 211.52 74.8868 240.193 86.9163 266.023C98.9458 291.853 117.942 313.816 141.768 329.442C69.3702 310.098 20.2927 239.992 29.407 163.404C39.4016 79.4027 115.594 19.4124 199.596 29.407C223.126 32.1734 245.689 40.3813 265.498 53.3804Z" fill="url(#paint2_linear)"/>
<path d="M172.314 175.402V67.473C172.314 67.473 173.831 61.7054 178.537 65.1204L180.009 173.877L191.089 173.664C191.089 173.664 196.484 146.959 198.404 143.969C200.324 140.979 209.408 137.723 209.408 137.723C209.408 137.723 209.332 133.709 208.353 132.533C207.374 131.356 205.029 128.905 205.462 127.835C205.895 126.765 206.38 125.756 206.38 125.756C206.38 125.756 205.029 119.821 205.568 118.22C205.568 118.22 208.05 112.058 208.353 111.633C208.497 111.382 208.694 111.166 208.93 110.999C209.166 110.833 209.436 110.72 209.72 110.67C210.005 110.619 210.297 110.631 210.576 110.706C210.855 110.781 211.115 110.916 211.336 111.102C213.081 112.202 216.519 118.812 216.519 118.812C216.519 118.812 220.693 122.606 221.019 126.507C221.346 130.408 217.415 136.866 217.415 136.866L223.486 139.408C223.486 139.408 237.905 146.086 239.005 147.801C240.105 149.517 238.451 152.355 238.451 152.355L224.275 152.59L219.221 160.058L219.889 171.669L229.192 176.647C229.192 176.647 230.581 179.424 230.209 180.07C229.838 180.715 263.289 181.041 263.289 181.041V185.238C263.289 185.238 263.024 187.302 260.315 187.385C257.605 187.469 232.729 187.385 232.729 187.385L230.817 198.769L230.9 205.819L237.73 213.021C237.73 213.021 238.14 216.056 236.288 215.836C234.436 215.616 225.398 211.192 225.292 207.701V195.558L223.812 186.156L217.468 181.519L212.588 184.266L210.311 199.08L210.918 210.046V213.081L207.549 220.389C207.549 220.389 205.568 220.746 205.568 217.043C205.568 213.339 208.391 209.067 208.391 209.067C207.737 207.255 206.783 205.567 205.568 204.073C203.861 202.229 200.013 183.28 200.013 183.28L173.907 185.169L172.314 175.402Z" fill="url(#paint3_linear)"/>
<path d="M217.452 213.506C217.21 214.712 216.676 215.841 215.897 216.792C215.114 217.773 214.248 218.684 213.309 219.517C212.734 220.112 212.042 220.579 211.275 220.89C210.888 221.037 210.466 221.067 210.062 220.978C209.658 220.889 209.288 220.685 208.998 220.389C208.743 220.019 208.605 219.58 208.605 219.13C208.605 218.679 208.743 218.24 208.998 217.87C209.533 217.144 210.175 216.504 210.903 215.973C212.542 214.584 213.65 212.823 215.123 211.305C216.868 209.522 217.71 211.95 217.452 213.506Z" fill="#68E1FD"/>
<path d="M229.397 207.708C230.178 208.904 231.238 209.891 232.486 210.584C233.748 211.308 235.071 211.92 236.44 212.413C237.312 212.819 238.263 213.028 239.225 213.028C239.711 213.026 240.187 212.881 240.591 212.611C240.996 212.341 241.313 211.959 241.502 211.51C241.613 211 241.567 210.467 241.369 209.983C241.171 209.5 240.831 209.087 240.394 208.801C239.51 208.247 238.544 207.835 237.533 207.579C235.172 206.775 233.222 205.348 230.983 204.339C228.335 203.155 228.464 206.137 229.397 207.708Z" fill="#68E1FD"/>
<path d="M225.762 152.598C225.762 152.598 239.346 158.039 241.585 157.91C243.824 157.781 245.827 155.876 245.106 153.288C244.385 150.7 225.322 141.002 225.322 141.002L225.762 152.598Z" fill="#68E1FD"/>
<path d="M224.677 152.598C224.677 152.598 238.261 158.039 240.492 157.91C242.723 157.781 244.735 155.876 244.014 153.288C243.293 150.7 224.245 140.971 224.245 140.971L224.677 152.598Z" fill="url(#paint4_linear)"/>
<path d="M206.031 170.265C205.927 166.265 206.029 162.263 206.335 158.274C206.737 152.689 204.991 145.919 208.611 141.647C209.674 140.395 215.039 139.431 216.686 139.37C220.587 139.325 225.034 139.924 228.069 142.831C230.429 145.107 228.661 150.662 228.396 153.933C227.895 160.255 228.638 162.44 228.707 167.115C228.752 170.636 228.638 174.848 225.8 176.981C224.237 178.127 220.313 178.036 218.378 178.165C215.722 178.354 210.888 179.015 208.452 177.74C206.153 176.533 206.115 172.503 206.031 170.265Z" fill="#68E1FD"/>
<path d="M206.031 170.265C205.927 166.265 206.029 162.263 206.335 158.274C206.737 152.689 204.991 145.919 208.611 141.647C209.674 140.395 215.039 139.431 216.686 139.37C220.587 139.325 225.034 139.924 228.069 142.831C230.429 145.107 228.661 150.662 228.396 153.933C227.895 160.255 228.638 162.44 228.707 167.115C228.752 170.636 228.638 174.848 225.8 176.981C224.237 178.127 220.313 178.036 218.378 178.165C215.722 178.354 210.888 179.015 208.452 177.74C206.153 176.533 206.115 172.503 206.031 170.265Z" fill="url(#paint5_linear)"/>
<path opacity="0.31" d="M207.185 149.577L208.012 159.033C208.202 161.398 209.157 163.637 210.733 165.41C212.309 167.183 214.42 168.395 216.747 168.861C216.997 168.912 217.251 168.948 217.506 168.967C220.268 169.179 224.965 171.494 224.965 171.494L214.083 174.879L208.406 173.171L206.031 173.786L206.289 159.61L207.185 149.577Z" fill="url(#paint6_linear)"/>
<path d="M214.121 141.852C214.159 142.511 214.327 143.155 214.615 143.749C214.902 144.343 215.305 144.874 215.798 145.312C216.621 145.886 217.611 146.171 218.614 146.124C219.174 146.16 219.735 146.067 220.254 145.851C220.772 145.635 221.234 145.303 221.604 144.88C222.362 143.787 222.127 142.277 221.778 140.971C221.612 140.023 221.15 139.152 220.458 138.482C219.357 137.617 217.02 137.541 215.722 137.989C214.235 138.505 213.962 140.516 214.121 141.852Z" fill="#68E1FD"/>
<path d="M214.121 141.852C214.159 142.511 214.327 143.155 214.615 143.749C214.902 144.343 215.305 144.874 215.798 145.312C216.621 145.886 217.611 146.171 218.614 146.124C219.174 146.16 219.735 146.067 220.254 145.851C220.772 145.635 221.234 145.303 221.604 144.88C222.362 143.787 222.127 142.277 221.778 140.971C221.612 140.023 221.15 139.152 220.458 138.482C219.357 137.617 217.02 137.541 215.722 137.989C214.235 138.505 213.962 140.516 214.121 141.852Z" fill="url(#paint7_linear)"/>
<path d="M211.161 129.171C211.161 128.412 212.034 123.1 209.082 124.253C208.057 124.633 208.46 125.771 208.649 126.75C208.945 128.29 211.176 129.543 211.161 129.171Z" fill="url(#paint8_linear)"/>
<path d="M224.639 129.406C224.715 128.647 223.599 123.335 226.453 124.693C227.439 125.171 226.939 126.211 226.658 127.228C226.233 128.731 224.594 129.77 224.639 129.406Z" fill="url(#paint9_linear)"/>
<path d="M181.496 191.324C186.924 191.324 191.324 186.924 191.324 181.496C191.324 176.069 186.924 171.669 181.496 171.669C176.069 171.669 171.669 176.069 171.669 181.496C171.669 186.924 176.069 191.324 181.496 191.324Z" fill="#68E1FD"/>
<path d="M181.496 191.324C186.924 191.324 191.324 186.924 191.324 181.496C191.324 176.069 186.924 171.669 181.496 171.669C176.069 171.669 171.669 176.069 171.669 181.496C171.669 186.924 176.069 191.324 181.496 191.324Z" fill="url(#paint10_linear)"/>
<path d="M181.177 61.6295C182.125 61.6295 183.035 62.006 183.705 62.6764C184.375 63.3467 184.752 64.2558 184.752 65.2038V184.243H177.58V65.2038C177.58 64.2558 177.957 63.3467 178.627 62.6764C179.298 62.006 180.207 61.6295 181.155 61.6295H181.177Z" fill="#25233A"/>
<path d="M261.567 177.861H180.798C179.034 177.861 177.603 179.29 177.603 181.052C177.603 182.815 179.034 184.243 180.798 184.243H261.567C263.331 184.243 264.762 182.815 264.762 181.052C264.762 179.29 263.331 177.861 261.567 177.861Z" fill="#25233A"/>
<path d="M215.616 141.457C215.577 142.182 215.704 142.906 215.988 143.574C216.191 143.923 216.447 144.238 216.747 144.508C217.096 144.933 217.572 145.236 218.105 145.373C218.4 145.409 218.699 145.374 218.977 145.271C219.256 145.168 219.506 145 219.706 144.781C220.093 144.336 220.354 143.797 220.465 143.218C220.715 141.948 220.756 140.646 220.587 139.363L220.42 137.215C220.426 136.269 220.18 135.339 219.706 134.521C219.496 134.228 219.228 133.982 218.919 133.798C218.609 133.614 218.265 133.496 217.908 133.451C214.166 132.98 215.563 139.363 215.616 141.457Z" fill="url(#paint11_linear)"/>
<path d="M225.444 120.094C225.444 120.094 226.483 134.953 218.932 136.866C211.381 138.778 210.319 126.241 210.106 121.87C209.894 117.499 213.294 113.834 218.932 114.532C221.535 114.858 224.89 116.558 225.444 120.094Z" fill="url(#paint12_linear)"/>
<path d="M212.861 111.102C214.318 108.939 217.65 108.703 219.866 110.077C220.883 110.715 221.74 111.595 222.863 112.043C223.668 112.354 224.563 112.399 225.39 112.657C226.217 112.924 226.957 113.409 227.532 114.061C228.108 114.713 228.497 115.507 228.659 116.361C228.821 117.215 228.75 118.096 228.454 118.914C228.158 119.731 227.648 120.453 226.977 121.005C226.149 121.673 225.125 122.06 224.237 122.644C224.237 121.749 223.266 120.884 222.522 120.368C221.755 119.885 220.87 119.623 219.964 119.609L220.2 120.117C218.903 120.525 217.509 120.506 216.223 120.064C214.789 119.571 213.271 118.546 211.897 119.199C211.23 119.518 210.554 120.208 209.894 119.874C209.712 119.745 209.563 119.574 209.459 119.377C209.354 119.179 209.298 118.959 209.294 118.736C208.862 115.845 211.154 113.576 212.861 111.102Z" fill="#25233A"/>
<path d="M208.619 141.647C207.078 142.201 205.696 143.123 204.593 144.333C203.49 145.544 202.699 147.005 202.29 148.591C200.939 154.009 196.074 175.418 196.074 175.418C196.074 175.418 200.749 175.949 202.343 175.63L206.98 156.658C206.98 156.658 206.79 145.396 208.619 141.647Z" fill="#68E1FD"/>
<path d="M208.619 141.647C207.078 142.201 205.696 143.123 204.593 144.333C203.49 145.544 202.699 147.005 202.29 148.591C200.939 154.009 196.074 175.418 196.074 175.418C196.074 175.418 200.749 175.949 202.343 175.63L206.98 156.658C206.98 156.658 206.79 145.396 208.619 141.647Z" fill="url(#paint13_linear)"/>
<path d="M208.399 216.974C208.388 217.366 208.483 217.754 208.672 218.097C208.87 218.367 209.13 218.584 209.43 218.731C209.73 218.878 210.061 218.949 210.395 218.94C211.592 218.923 212.737 218.445 213.59 217.604C214.428 216.767 215.112 215.788 215.608 214.713C215.933 214.136 216.171 213.515 216.314 212.869C216.61 211.351 215.995 209.757 215.396 208.315C215.616 208.862 212.482 209.264 212.193 209.264C210.964 209.264 211.131 210.023 210.721 211.04C209.947 212.983 208.384 214.766 208.399 216.974Z" fill="#25233A"/>
<path d="M210.896 205.659L212.413 210C212.413 210 213.37 211.784 214.827 210.463C214.827 210.463 215.312 209.97 215.411 208.277L214.121 204.422L210.896 205.659Z" fill="url(#paint14_linear)"/>
<path d="M239.491 178.605C238.489 186.816 234.725 198.602 234.558 198.602C233.731 198.366 230.004 199.307 229.162 198.989C228.722 198.814 228.464 190.072 228.707 185.518C228.79 184.001 228.79 179.364 228.79 177.861L218.386 178.165L216.314 178.294C216.329 180.254 216.169 182.212 215.836 184.145C214.728 192.265 213.597 196.287 213.992 204.445C213.939 205.773 211.116 206.319 210.152 205.295C205.834 200.681 205.545 195.801 204.658 189.54C204.066 185.367 202.123 170.105 207.511 168.967C208.305 168.788 209.12 168.721 209.932 168.77C211.207 168.861 213.673 168.929 214.485 170.014C214.758 170.151 220.207 172.883 224.806 171.486L229.663 166.478C230.33 165.637 231.26 165.043 232.304 164.792C233.348 164.54 234.446 164.645 235.423 165.089C237.32 165.984 238.762 168.125 239.369 170.576C239.976 173.027 239.817 175.926 239.491 178.605Z" fill="#68E1FD"/>
<path d="M228.798 204.787C228.75 205.125 228.776 205.469 228.874 205.796C229.02 206.11 229.242 206.384 229.519 206.593C231.806 208.602 234.533 210.047 237.48 210.812C238.107 211.023 238.787 211.023 239.415 210.812C239.89 210.543 240.25 210.107 240.425 209.589C240.6 209.071 240.578 208.507 240.363 208.004C239.898 207.012 239.158 206.175 238.231 205.591C237.303 205.012 236.49 204.265 235.833 203.39C235.605 202.864 235.247 202.405 234.793 202.055C234.429 201.902 234.033 201.84 233.64 201.872C232.752 201.872 230.156 201.47 229.435 201.941C228.714 202.411 228.843 203.846 228.798 204.787Z" fill="#25233A"/>
<path d="M229.276 198.989L229.701 202.616C230.378 203.227 231.166 203.701 232.023 204.012C232.237 204.078 232.462 204.092 232.682 204.054C232.902 204.016 233.11 203.927 233.29 203.795C233.469 203.662 233.615 203.489 233.715 203.289C233.815 203.09 233.868 202.87 233.867 202.646V202.351L234.08 198.556L229.276 198.989Z" fill="url(#paint15_linear)"/>
<path d="M244.234 153.296L223.827 149.023L222.901 154.548C222.901 154.548 239.741 161.849 242.519 159.708C245.296 157.568 245.448 154.669 244.234 153.296Z" fill="#68E1FD"/>
<path d="M244.234 153.296L223.827 149.023L222.901 154.548C222.901 154.548 239.741 161.849 242.519 159.708C245.296 157.568 245.448 154.669 244.234 153.296Z" fill="url(#paint16_linear)"/>
<path d="M223.706 149.691C223.706 149.691 216.952 146.656 214.364 146.838C211.776 147.02 211.821 148.864 211.821 148.864V150.883C211.811 151.28 211.919 151.672 212.131 152.008C212.343 152.344 212.65 152.61 213.013 152.772C213.724 153.103 214.509 153.239 215.29 153.167C216.936 152.916 217.27 152.074 217.27 152.074C217.27 152.074 218.735 153.546 219.638 153.205C220.759 152.741 222.007 152.682 223.167 153.038L223.706 149.691Z" fill="url(#paint17_linear)"/>
<path d="M222.173 148.75L221.361 153.25L222.947 153.47L223.653 149.092L222.173 148.75Z" fill="#25233A"/>
<path d="M222.173 148.75L221.93 150.154L223.425 150.404L223.653 149.092L222.173 148.75Z" fill="#25233A"/>
<path d="M224.523 148.495L221.67 147.938L221.519 148.713L224.372 149.27L224.523 148.495Z" fill="#68E1FD"/>
<path d="M224.523 148.495L221.67 147.938L221.519 148.713L224.372 149.27L224.523 148.495Z" fill="url(#paint18_linear)"/>
<path d="M211.161 120.557C211.086 122.554 210.865 124.542 210.501 126.507C210.525 125.965 210.469 125.423 210.334 124.898C210.296 124.677 210.196 124.472 210.046 124.306C209.97 124.223 209.867 124.17 209.756 124.156C209.645 124.142 209.532 124.169 209.439 124.23C209.537 123.168 209.112 122.121 209.143 121.051C209.163 120.27 209.428 119.516 209.901 118.895C209.922 118.858 209.954 118.829 209.993 118.812C210.039 118.794 210.09 118.794 210.137 118.812C210.479 118.945 210.766 119.19 210.952 119.507C211.138 119.823 211.212 120.194 211.161 120.557Z" fill="#25233A"/>
<path d="M224.874 127.327L225.383 124.929C225.383 124.784 225.459 124.61 225.603 124.564C225.747 124.519 225.762 124.564 225.823 124.496C225.852 124.461 225.873 124.419 225.884 124.375L226.498 122.424C226.589 122.121 226.681 121.825 226.749 121.514C226.787 121.372 226.787 121.223 226.749 121.081C226.691 120.916 226.575 120.779 226.422 120.694C226.287 120.602 226.135 120.54 225.974 120.51C225.814 120.481 225.649 120.484 225.49 120.521C225.331 120.558 225.182 120.628 225.051 120.726C224.92 120.823 224.811 120.947 224.73 121.089C224.605 121.29 224.529 121.517 224.508 121.753C224.487 121.989 224.522 122.227 224.609 122.447C224.981 124.046 225.071 125.697 224.874 127.327Z" fill="#25233A"/>
<path d="M221.657 147.953L221.915 147.801L224.336 148.264L224.51 148.507L221.657 147.953Z" fill="#68E1FD"/>
<path d="M221.657 147.953L221.915 147.801L224.336 148.264L224.51 148.507L221.657 147.953Z" fill="url(#paint19_linear)"/>
<path d="M194.648 175.941C194.232 176.023 193.842 176.203 193.51 176.467C193.178 176.732 192.915 177.072 192.743 177.459C192.533 178.227 192.52 179.037 192.705 179.812C192.752 180.241 192.864 180.661 193.039 181.056C193.113 181.237 193.238 181.392 193.398 181.504C193.558 181.616 193.747 181.679 193.942 181.686C194.496 181.633 194.815 180.874 194.845 180.206C194.8 179.539 194.8 178.87 194.845 178.203C194.777 179.028 194.777 179.858 194.845 180.684C194.836 181.012 194.95 181.332 195.164 181.58C195.255 181.645 195.362 181.683 195.473 181.69C195.585 181.696 195.696 181.671 195.794 181.618C196.033 181.472 196.235 181.273 196.383 181.036C196.532 180.799 196.624 180.53 196.651 180.252C196.723 179.661 196.708 179.062 196.606 178.476C196.703 178.899 196.721 179.336 196.659 179.766C196.593 180.195 196.637 180.634 196.788 181.041C196.97 181.42 197.418 181.648 197.706 181.39C197.893 181.18 198 180.912 198.01 180.631C198.124 179.926 198.162 179.211 198.124 178.499C198.007 179.227 198.043 179.971 198.23 180.684C198.473 181.36 199.118 181.898 199.694 181.648C199.928 181.496 200.12 181.288 200.253 181.043C200.385 180.797 200.454 180.523 200.453 180.244C200.514 179.66 200.453 179.068 200.453 178.483C200.453 178.374 200.474 178.266 200.514 178.165C200.673 177.861 201.053 178.005 201.349 177.967C201.645 177.929 202.039 177.459 202.108 176.988C202.16 176.508 202.124 176.022 202.001 175.554C200.653 175.586 199.305 175.53 197.964 175.387C196.835 175.375 195.712 175.563 194.648 175.941Z" fill="url(#paint20_linear)"/>
<path d="M239.604 178.605C238.603 186.816 234.839 198.602 234.672 198.602C233.873 198.554 233.072 198.613 232.289 198.776C231.044 198.958 229.716 199.163 229.253 198.989C229.215 198.989 229.185 198.905 229.147 198.776C228.79 197.456 228.593 190.246 228.775 185.981V185.518C228.859 184.001 228.851 179.364 228.851 177.861L218.454 178.165L216.382 178.294C216.397 180.254 216.237 182.212 215.904 184.145C214.796 192.265 213.666 196.287 214.06 204.445C214.022 205.303 212.838 205.834 211.746 205.826C211.189 205.857 210.643 205.666 210.228 205.295C205.91 200.681 205.621 195.801 204.733 189.54C204.141 185.367 202.199 170.105 207.587 168.967C208.38 168.788 209.195 168.721 210.008 168.77C211.283 168.861 213.749 168.929 214.561 170.014C214.834 170.151 220.283 172.883 224.882 171.486L229.739 166.478C230.406 165.637 231.336 165.043 232.38 164.792C233.423 164.54 234.521 164.645 235.499 165.089C237.396 165.984 238.838 168.125 239.445 170.576C240.052 173.027 239.931 175.926 239.604 178.605Z" fill="url(#paint21_linear)"/>
<path d="M211.791 205.826C211.235 205.857 210.689 205.666 210.273 205.295C205.955 200.681 205.667 195.801 204.779 189.54C204.187 185.367 202.244 170.105 207.632 168.967C205.855 172.51 205.292 176.539 206.031 180.434C207.299 186.687 211.791 205.826 211.791 205.826Z" fill="url(#paint22_linear)"/>
<path d="M232.289 198.776C231.044 198.958 229.716 199.163 229.253 198.989C229.215 198.989 229.185 198.905 229.147 198.776C228.79 197.456 228.593 190.246 228.775 185.981V185.518C228.859 184.001 228.851 179.364 228.851 177.861L216.382 178.294L215.874 173.953C215.874 173.953 222.78 175.66 224.844 175.402C226.908 175.144 229.246 173.126 229.246 173.126C229.246 173.126 232.114 169.141 232.964 173.126C233.814 176.821 232.456 196.424 232.289 198.776Z" fill="url(#paint23_linear)"/>
<path d="M184.752 320.684C184.752 318.71 183.152 317.11 181.177 317.11C179.203 317.11 177.603 318.71 177.603 320.684V325.716C177.603 327.69 179.203 329.29 181.177 329.29C183.152 329.29 184.752 327.69 184.752 325.716V320.684Z" fill="white"/>
<path d="M184.752 38.3467C184.752 36.3726 183.152 34.7723 181.177 34.7723C179.203 34.7723 177.603 36.3726 177.603 38.3467V43.3782C177.603 45.3522 179.203 46.9525 181.177 46.9525C183.152 46.9525 184.752 45.3522 184.752 43.3782V38.3467Z" fill="white"/>
<path d="M184.752 320.684C184.752 318.71 183.152 317.11 181.177 317.11C179.203 317.11 177.603 318.71 177.603 320.684V325.716C177.603 327.69 179.203 329.29 181.177 329.29C183.152 329.29 184.752 327.69 184.752 325.716V320.684Z" fill="white"/>
<path d="M82.1043 77.9083C80.7084 76.5124 78.4452 76.5124 77.0493 77.9083C75.6535 79.3041 75.6535 81.5673 77.0493 82.9632L80.6071 86.521C82.003 87.9168 84.2662 87.9168 85.662 86.521C87.0579 85.1251 87.0579 82.8619 85.662 81.466L82.1043 77.9083Z" fill="white"/>
<path d="M281.751 277.55C280.355 276.154 278.092 276.154 276.696 277.55C275.3 278.945 275.3 281.209 276.696 282.605L280.254 286.162C281.65 287.558 283.913 287.558 285.309 286.162C286.705 284.766 286.705 282.503 285.309 281.107L281.751 277.55Z" fill="white"/>
<path d="M37.4892 178.461C35.5151 178.461 33.9148 180.061 33.9148 182.035C33.9148 184.009 35.5151 185.609 37.4892 185.609H42.5206C44.4947 185.609 46.095 184.009 46.095 182.035C46.095 180.061 44.4947 178.461 42.5206 178.461H37.4892Z" fill="white"/>
<path d="M319.827 178.453C317.853 178.453 316.252 180.053 316.252 182.027C316.252 184.002 317.853 185.602 319.827 185.602H324.858C326.832 185.602 328.433 184.002 328.433 182.027C328.433 180.053 326.832 178.453 324.858 178.453H319.827Z" fill="white"/>
<path d="M77.0497 281.109C75.6538 282.505 75.6538 284.768 77.0497 286.164C78.4456 287.56 80.7087 287.56 82.1046 286.164L85.6624 282.606C87.0583 281.211 87.0583 278.947 85.6624 277.552C84.2665 276.156 82.0033 276.156 80.6075 277.552L77.0497 281.109Z" fill="white"/>
<path d="M276.693 81.4604C275.297 82.8563 275.297 85.1195 276.693 86.5154C278.089 87.9112 280.352 87.9112 281.748 86.5154L285.306 82.9576C286.702 81.5617 286.702 79.2985 285.306 77.9027C283.91 76.5068 281.647 76.5068 280.251 77.9027L276.693 81.4604Z" fill="white"/>
<defs>
<linearGradient id="paint0_linear" x1="115.245" y1="-221.588" x2="221.657" y2="425.844" gradientUnits="userSpaceOnUse">
<stop stop-opacity="0"/>
<stop offset="0.88" stop-opacity="0.8"/>
<stop offset="0.97"/>
</linearGradient>
<linearGradient id="paint1_linear" x1="83555.8" y1="-74907.7" x2="69064.6" y2="314986" gradientUnits="userSpaceOnUse">
<stop stop-opacity="0"/>
<stop offset="0.88" stop-opacity="0.8"/>
<stop offset="0.97"/>
</linearGradient>
<linearGradient id="paint2_linear" x1="-32.5488" y1="67.1618" x2="793.078" y2="508.183" gradientUnits="userSpaceOnUse">
<stop stop-color="white" stop-opacity="0"/>
<stop offset="0.84" stop-color="white" stop-opacity="0.84"/>
<stop offset="0.97" stop-color="white"/>
</linearGradient>
<linearGradient id="paint3_linear" x1="28819.7" y1="-26004.2" x2="22400.8" y2="74461" gradientUnits="userSpaceOnUse">
<stop stop-opacity="0"/>
<stop offset="0.88" stop-opacity="0.8"/>
<stop offset="0.97"/>
</linearGradient>
<linearGradient id="paint4_linear" x1="6706.6" y1="3403.41" x2="6602.92" y2="3633.52" gradientUnits="userSpaceOnUse">
<stop stop-opacity="0"/>
<stop offset="0.88" stop-opacity="0.8"/>
<stop offset="0.97"/>
</linearGradient>
<linearGradient id="paint5_linear" x1="218.651" y1="135.606" x2="215.661" y2="196.72" gradientUnits="userSpaceOnUse">
<stop stop-opacity="0"/>
<stop offset="0.5" stop-opacity="0.19"/>
<stop offset="0.55" stop-opacity="0.24"/>
<stop offset="0.97"/>
</linearGradient>
<linearGradient id="paint6_linear" x1="5922.3" y1="4113.55" x2="5791.94" y2="6741.29" gradientUnits="userSpaceOnUse">
<stop stop-opacity="0"/>
<stop offset="0.88" stop-opacity="0.8"/>
<stop offset="0.97"/>
</linearGradient>
<linearGradient id="paint7_linear" x1="2653.76" y1="1621.43" x2="2630.16" y2="1848.58" gradientUnits="userSpaceOnUse">
<stop stop-opacity="0"/>
<stop offset="0.5" stop-opacity="0.19"/>
<stop offset="0.55" stop-opacity="0.24"/>
<stop offset="0.97"/>
</linearGradient>
<linearGradient id="paint8_linear" x1="208.406" y1="126.666" x2="211.275" y2="126.666" gradientUnits="userSpaceOnUse">
<stop stop-color="#ECC4D7"/>
<stop offset="0.42" stop-color="#EFD4D1"/>
<stop offset="1" stop-color="#F2EAC9"/>
</linearGradient>
<linearGradient id="paint9_linear" x1="1018.46" y1="962.238" x2="1027.03" y2="962.238" gradientUnits="userSpaceOnUse">
<stop stop-color="#ECC4D7"/>
<stop offset="0.42" stop-color="#EFD4D1"/>
<stop offset="1" stop-color="#F2EAC9"/>
</linearGradient>
<linearGradient id="paint10_linear" x1="4862.4" y1="3833.84" x2="4878.91" y2="5527.33" gradientUnits="userSpaceOnUse">
<stop stop-opacity="0"/>
<stop offset="0.88" stop-opacity="0.8"/>
<stop offset="0.97"/>
</linearGradient>
<linearGradient id="paint11_linear" x1="1841.55" y1="2328.65" x2="1857.13" y2="2415.66" gradientUnits="userSpaceOnUse">
<stop stop-color="#ECC4D7"/>
<stop offset="0.42" stop-color="#EFD4D1"/>
<stop offset="1" stop-color="#F2EAC9"/>
</linearGradient>
<linearGradient id="paint12_linear" x1="4865.4" y1="3529.82" x2="4879.68" y2="4351.13" gradientUnits="userSpaceOnUse">
<stop stop-color="#ECC4D7"/>
<stop offset="0.42" stop-color="#EFD4D1"/>
<stop offset="1" stop-color="#F2EAC9"/>
</linearGradient>
<linearGradient id="paint13_linear" x1="3693.22" y1="7233.36" x2="3881.83" y2="7250.73" gradientUnits="userSpaceOnUse">
<stop stop-opacity="0"/>
<stop offset="0.5" stop-opacity="0.19"/>
<stop offset="0.55" stop-opacity="0.24"/>
<stop offset="0.97"/>
</linearGradient>
<linearGradient id="paint14_linear" x1="1551.52" y1="1893.02" x2="1542" y2="2070.11" gradientUnits="userSpaceOnUse">
<stop stop-color="#ECC4D7"/>
<stop offset="0.42" stop-color="#EFD4D1"/>
<stop offset="1" stop-color="#F2EAC9"/>
</linearGradient>
<linearGradient id="paint15_linear" x1="1772.02" y1="1591.77" x2="1766.57" y2="1719.36" gradientUnits="userSpaceOnUse">
<stop stop-color="#ECC4D7"/>
<stop offset="0.42" stop-color="#EFD4D1"/>
<stop offset="1" stop-color="#F2EAC9"/>
</linearGradient>
<linearGradient id="paint16_linear" x1="7387.71" y1="2354.11" x2="7369.07" y2="2496.05" gradientUnits="userSpaceOnUse">
<stop stop-opacity="0"/>
<stop offset="0.88" stop-opacity="0.8"/>
<stop offset="0.97"/>
</linearGradient>
<linearGradient id="paint17_linear" x1="3918.01" y1="1429.47" x2="3770.19" y2="1390.09" gradientUnits="userSpaceOnUse">
<stop stop-color="#ECC4D7"/>
<stop offset="0.42" stop-color="#EFD4D1"/>
<stop offset="1" stop-color="#F2EAC9"/>
</linearGradient>
<linearGradient id="paint18_linear" x1="1120.83" y1="301.956" x2="1120.82" y2="303.584" gradientUnits="userSpaceOnUse">
<stop stop-opacity="0"/>
<stop offset="0.88" stop-opacity="0.8"/>
<stop offset="0.97"/>
</linearGradient>
<linearGradient id="paint19_linear" x1="1060.74" y1="284.645" x2="1060.72" y2="286.29" gradientUnits="userSpaceOnUse">
<stop stop-color="white" stop-opacity="0"/>
<stop offset="0.84" stop-color="white" stop-opacity="0.84"/>
<stop offset="0.97" stop-color="white"/>
</linearGradient>
<linearGradient id="paint20_linear" x1="2765.57" y1="1663.46" x2="2885.78" y2="1663.46" gradientUnits="userSpaceOnUse">
<stop stop-color="#ECC4D7"/>
<stop offset="0.42" stop-color="#EFD4D1"/>
<stop offset="1" stop-color="#F2EAC9"/>
</linearGradient>
<linearGradient id="paint21_linear" x1="11239.8" y1="8946.63" x2="11434.2" y2="11926.5" gradientUnits="userSpaceOnUse">
<stop stop-color="white" stop-opacity="0"/>
<stop offset="0.84" stop-color="white" stop-opacity="0.84"/>
<stop offset="0.97" stop-color="white"/>
</linearGradient>
<linearGradient id="paint22_linear" x1="2534.45" y1="9264.06" x2="2357.61" y2="9265.48" gradientUnits="userSpaceOnUse">
<stop stop-opacity="0"/>
<stop offset="0.88" stop-opacity="0.8"/>
<stop offset="0.97"/>
</linearGradient>
<linearGradient id="paint23_linear" x1="238.329" y1="160.953" x2="211.973" y2="208.027" gradientUnits="userSpaceOnUse">
<stop stop-opacity="0"/>
<stop offset="0.91" stop-opacity="0.8"/>
<stop offset="1"/>
</linearGradient>
</defs>
</svg>
